<svg width="36" height="37" viewBox="0 0 36 37" fill="none" xmlns="http://www.w3.org/2000/svg">
<g filter="url(#filter0_d_153_1249)">
<circle cx="18" cy="16.25" r="15" fill="url(#paint0_linear_153_1249)"/>
<mask id="mask0_153_1249" style="mask-type:alpha" maskUnits="userSpaceOnUse" x="3" y="2" width="30" height="29">
<circle cx="18.0001" cy="16.2497" r="14.2105" fill="url(#paint1_linear_153_1249)"/>
<circle cx="18.0001" cy="16.2497" r="13.7105" stroke="#1E0A2B" stroke-opacity="0.2"/>
</mask>
<g mask="url(#mask0_153_1249)">
<g style="mix-blend-mode:hard-light">
<ellipse cx="18.0001" cy="9.14442" rx="8.68421" ry="5.52632" fill="#EFB0FF"/>
<path d="M26.1843 9.14442C26.1843 10.4402 25.358 11.6848 23.8724 12.6303C22.3926 13.5719 20.3178 14.1707 18.0001 14.1707C15.6825 14.1707 13.6077 13.5719 12.1279 12.6303C10.6422 11.6848 9.81592 10.4402 9.81592 9.14442C9.81592 7.84861 10.6422 6.60399 12.1279 5.65855C13.6077 4.71689 15.6825 4.1181 18.0001 4.1181C20.3178 4.1181 22.3926 4.71689 23.8724 5.65855C25.358 6.60399 26.1843 7.84861 26.1843 9.14442Z" stroke="#1E0A2B" stroke-opacity="0.2"/>
</g>
</g>
<mask id="path-6-outside-1_153_1249" maskUnits="userSpaceOnUse" x="11" y="6" width="15" height="20" fill="black">
<rect fill="white" x="11" y="6" width="15" height="20"/>
<path d="M15.7148 20.1133C15.7148 19.543 15.7578 19.0586 15.8438 18.6602C15.9297 18.2617 16.0664 17.9062 16.2539 17.5938C16.4492 17.2812 16.7148 16.9727 17.0508 16.668C17.3867 16.3633 17.8086 16.0234 18.3164 15.6484C18.6289 15.4219 18.9062 15.1602 19.1484 14.8633C19.3906 14.5586 19.582 14.2305 19.7227 13.8789C19.8711 13.5195 19.9453 13.1484 19.9453 12.7656C19.9453 12.1875 19.7812 11.7305 19.4531 11.3945C19.1328 11.0586 18.6836 10.8906 18.1055 10.8906C17.6289 10.8906 17.2188 11.0234 16.875 11.2891C16.5312 11.5547 16.3555 11.9648 16.3477 12.5195H12.3281L12.3047 12.4492C12.2891 11.418 12.5234 10.5508 13.0078 9.84766C13.4922 9.13672 14.1719 8.60156 15.0469 8.24219C15.9219 7.875 16.9336 7.69141 18.082 7.69141C19.9492 7.69141 21.4102 8.14062 22.4648 9.03906C23.5273 9.9375 24.0586 11.1406 24.0586 12.6484C24.0586 13.3359 23.918 13.9766 23.6367 14.5703C23.3555 15.1641 22.9805 15.707 22.5117 16.1992C22.0508 16.6914 21.5391 17.1406 20.9766 17.5469C20.6641 17.7734 20.4219 18.0039 20.25 18.2383C20.0859 18.4727 19.9727 18.7422 19.9102 19.0469C19.8477 19.3438 19.8164 19.6992 19.8164 20.1133H15.7148ZM15.7148 25V21.6484H19.7695V25H15.7148Z"/>
</mask>
<path d="M15.7148 20.1133C15.7148 19.543 15.7578 19.0586 15.8438 18.6602C15.9297 18.2617 16.0664 17.9062 16.2539 17.5938C16.4492 17.2812 16.7148 16.9727 17.0508 16.668C17.3867 16.3633 17.8086 16.0234 18.3164 15.6484C18.6289 15.4219 18.9062 15.1602 19.1484 14.8633C19.3906 14.5586 19.582 14.2305 19.7227 13.8789C19.8711 13.5195 19.9453 13.1484 19.9453 12.7656C19.9453 12.1875 19.7812 11.7305 19.4531 11.3945C19.1328 11.0586 18.6836 10.8906 18.1055 10.8906C17.6289 10.8906 17.2188 11.0234 16.875 11.2891C16.5312 11.5547 16.3555 11.9648 16.3477 12.5195H12.3281L12.3047 12.4492C12.2891 11.418 12.5234 10.5508 13.0078 9.84766C13.4922 9.13672 14.1719 8.60156 15.0469 8.24219C15.9219 7.875 16.9336 7.69141 18.082 7.69141C19.9492 7.69141 21.4102 8.14062 22.4648 9.03906C23.5273 9.9375 24.0586 11.1406 24.0586 12.6484C24.0586 13.3359 23.918 13.9766 23.6367 14.5703C23.3555 15.1641 22.9805 15.707 22.5117 16.1992C22.0508 16.6914 21.5391 17.1406 20.9766 17.5469C20.6641 17.7734 20.4219 18.0039 20.25 18.2383C20.0859 18.4727 19.9727 18.7422 19.9102 19.0469C19.8477 19.3438 19.8164 19.6992 19.8164 20.1133H15.7148ZM15.7148 25V21.6484H19.7695V25H15.7148Z" fill="white"/>
<path d="M15.7148 20.1133H14.7148V21.1133H15.7148V20.1133ZM16.2539 17.5938L15.4059 17.0638L15.4011 17.0715L15.3964 17.0793L16.2539 17.5938ZM18.3164 15.6484L17.7294 14.8388L17.7224 14.844L18.3164 15.6484ZM19.1484 14.8633L19.9234 15.4955L19.9313 15.4855L19.1484 14.8633ZM19.7227 13.8789L18.7983 13.4971L18.7942 13.5075L19.7227 13.8789ZM19.4531 11.3945L18.7293 12.0847L18.7377 12.0933L19.4531 11.3945ZM16.3477 12.5195V13.5195H17.3337L17.3476 12.5336L16.3477 12.5195ZM12.3281 12.5195L11.3794 12.8358L11.6074 13.5195H12.3281V12.5195ZM12.3047 12.4492L11.3048 12.4644L11.3071 12.6189L11.356 12.7654L12.3047 12.4492ZM13.0078 9.84766L13.8313 10.415L13.8342 10.4107L13.0078 9.84766ZM15.0469 8.24219L15.4268 9.16723L15.4338 9.16429L15.0469 8.24219ZM22.4648 9.03906L21.8164 9.80031L21.8192 9.80266L22.4648 9.03906ZM22.5117 16.1992L21.7876 15.5095L21.7818 15.5157L22.5117 16.1992ZM20.9766 17.5469L20.3911 16.7362L20.3896 16.7373L20.9766 17.5469ZM20.25 18.2383L19.4436 17.6469L19.4371 17.6558L19.4308 17.6648L20.25 18.2383ZM19.9102 19.0469L20.8887 19.2529L20.8898 19.2478L19.9102 19.0469ZM19.8164 20.1133V21.1133H20.8164V20.1133H19.8164ZM15.7148 25H14.7148V26H15.7148V25ZM15.7148 21.6484V20.6484H14.7148V21.6484H15.7148ZM19.7695 21.6484H20.7695V20.6484H19.7695V21.6484ZM19.7695 25V26H20.7695V25H19.7695ZM16.7148 20.1133C16.7148 19.5881 16.7549 19.1788 16.8213 18.871L14.8662 18.4493C14.7608 18.9384 14.7148 19.4979 14.7148 20.1133H16.7148ZM16.8213 18.871C16.8868 18.5671 16.9865 18.3164 17.1114 18.1082L15.3964 17.0793C15.1463 17.4961 14.9726 17.9563 14.8662 18.4493L16.8213 18.871ZM17.1019 18.1237C17.2388 17.9048 17.4398 17.6652 17.7226 17.4087L16.379 15.9272C15.9899 16.2801 15.6597 16.6577 15.4059 17.0638L17.1019 18.1237ZM17.7226 17.4087C18.0262 17.1333 18.42 16.815 18.9104 16.4529L17.7224 14.844C17.1972 15.2318 16.7472 15.5932 16.379 15.9272L17.7226 17.4087ZM18.9034 16.458C19.2854 16.1811 19.626 15.8598 19.9233 15.4954L18.3736 14.2312C18.1865 14.4605 17.9724 14.6627 17.7294 14.8388L18.9034 16.458ZM19.9313 15.4855C20.2322 15.1069 20.4734 14.6946 20.6511 14.2503L18.7942 13.5075C18.6907 13.7663 18.549 14.0103 18.3656 14.241L19.9313 15.4855ZM20.6469 14.2607C20.8446 13.7822 20.9453 13.2815 20.9453 12.7656H18.9453C18.9453 13.0154 18.8976 13.2569 18.7984 13.4971L20.6469 14.2607ZM20.9453 12.7656C20.9453 11.9902 20.7193 11.2597 20.1685 10.6958L18.7377 12.0933C18.8432 12.2012 18.9453 12.3848 18.9453 12.7656H20.9453ZM20.1769 10.7045C19.6236 10.1242 18.8855 9.89062 18.1055 9.89062V11.8906C18.4817 11.8906 18.642 11.993 18.7294 12.0846L20.1769 10.7045ZM18.1055 9.89062C17.4304 9.89062 16.7996 10.0836 16.2636 10.4978L17.4864 12.0803C17.6379 11.9633 17.8274 11.8906 18.1055 11.8906V9.89062ZM16.2636 10.4978C15.6142 10.9995 15.3586 11.738 15.3478 12.5054L17.3476 12.5336C17.3524 12.1917 17.4483 12.1098 17.4864 12.0803L16.2636 10.4978ZM16.3477 11.5195H12.3281V13.5195H16.3477V11.5195ZM13.2768 12.2033L13.2534 12.133L11.356 12.7654L11.3794 12.8358L13.2768 12.2033ZM13.3046 12.4341C13.2914 11.5665 13.4876 10.9139 13.8313 10.415L12.1843 9.28035C11.5593 10.1876 11.2867 11.2694 11.3048 12.4644L13.3046 12.4341ZM13.8342 10.4107C14.1975 9.87751 14.7141 9.45993 15.4268 9.16721L14.667 7.31717C13.6297 7.7432 12.7869 8.39593 12.1814 9.2846L13.8342 10.4107ZM15.4338 9.16429C16.1634 8.85812 17.0392 8.69141 18.082 8.69141V6.69141C16.828 6.69141 15.6803 6.89188 14.6599 7.32009L15.4338 9.16429ZM18.082 8.69141C19.7946 8.69141 20.9971 9.10244 21.8164 9.80031L23.1133 8.27782C21.8232 7.17881 20.1038 6.69141 18.082 6.69141V8.69141ZM21.8192 9.80266C22.6365 10.4938 23.0586 11.407 23.0586 12.6484H25.0586C25.0586 10.8743 24.4182 9.38122 23.1105 8.27546L21.8192 9.80266ZM23.0586 12.6484C23.0586 13.1949 22.9479 13.6885 22.733 14.1422L24.5405 14.9984C24.888 14.2646 25.0586 13.4769 25.0586 12.6484H23.0586ZM22.733 14.1422C22.4989 14.6365 22.1855 15.0918 21.7876 15.5096L23.2359 16.8889C23.7754 16.3223 24.2121 15.6916 24.5405 14.9984L22.733 14.1422ZM21.7818 15.5157C21.3661 15.9596 20.903 16.3665 20.3911 16.7362L21.5621 18.3576C22.1752 17.9148 22.7355 17.4232 23.2416 16.8828L21.7818 15.5157ZM20.3896 16.7373C20.0189 17.006 19.6932 17.3065 19.4436 17.6469L21.0564 18.8296C21.1505 18.7013 21.3092 18.5408 21.5635 18.3565L20.3896 16.7373ZM19.4308 17.6648C19.1818 18.0206 19.0181 18.4192 18.9306 18.8459L20.8898 19.2478C20.9272 19.0652 20.9901 18.9248 21.0692 18.8117L19.4308 17.6648ZM18.9316 18.8409C18.8508 19.2249 18.8164 19.6532 18.8164 20.1133H20.8164C20.8164 19.7453 20.8446 19.4626 20.8887 19.2529L18.9316 18.8409ZM19.8164 19.1133H15.7148V21.1133H19.8164V19.1133ZM16.7148 25V21.6484H14.7148V25H16.7148ZM15.7148 22.6484H19.7695V20.6484H15.7148V22.6484ZM18.7695 21.6484V25H20.7695V21.6484H18.7695ZM19.7695 24H15.7148V26H19.7695V24Z" fill="#5C197C" mask="url(#path-6-outside-1_153_1249)"/>
</g>
<defs>
<filter id="filter0_d_153_1249" x="0" y="0.25" width="36" height="36" filterUnits="userSpaceOnUse" color-interpolation-filters="sRGB">
<feFlood flood-opacity="0" result="BackgroundImageFix"/>
<feColorMatrix in="SourceAlpha" type="matrix" values="0 0 0 0 0 0 0 0 0 0 0 0 0 0 0 0 0 0 127 0" result="hardAlpha"/>
<feOffset dy="2"/>
<feGaussianBlur stdDeviation="1.5"/>
<feComposite in2="hardAlpha" operator="out"/>
<feColorMatrix type="matrix" values="0 0 0 0 0 0 0 0 0 0 0 0 0 0 0 0 0 0 0.25 0"/>
<feBlend mode="normal" in2="BackgroundImageFix" result="effect1_dropShadow_153_1249"/>
<feBlend mode="normal" in="SourceGraphic" in2="effect1_dropShadow_153_1249" result="shape"/>
</filter>
<linearGradient id="paint0_linear_153_1249" x1="18" y1="1.25" x2="18" y2="31.25" gradientUnits="userSpaceOnUse">
<stop stop-color="#EF8EFF"/>
<stop offset="0.59" stop-color="#8243E8"/>
<stop offset="0.885" stop-color="#6627B5"/>
<stop offset="1" stop-color="#B66EFF"/>
</linearGradient>
<linearGradient id="paint1_linear_153_1249" x1="18.0001" y1="2.03915" x2="18.0001" y2="30.4602" gradientUnits="userSpaceOnUse">
<stop stop-color="#E16EC1"/>
<stop offset="0.2" stop-color="#DB8DFF"/>
<stop offset="0.6" stop-color="#620CA6"/>
<stop offset="0.885" stop-color="#5B1474"/>
<stop offset="1" stop-color="#B930BC"/>
</linearGradient>
</defs>
</svg>
