<svg width="57" height="43" viewBox="0 0 57 43" fill="none" xmlns="http://www.w3.org/2000/svg">
<rect x="0.5" y="5.5" width="56" height="37" rx="16.5" fill="#1A172A" stroke="#5B00B8"/>
<rect x="1" y="4" width="55" height="36" rx="16" fill="#3D3957"/>
<rect x="1" width="55" height="36" rx="16" fill="url(#paint0_linear_519_3808)"/>
<mask id="mask0_519_3808" style="mask-type:alpha" maskUnits="userSpaceOnUse" x="1" y="0" width="55" height="36">
<rect x="1" width="55" height="36" rx="16" fill="url(#paint1_linear_519_3808)"/>
</mask>
<g mask="url(#mask0_519_3808)">
<rect x="1.5" y="0.5" width="54" height="35" rx="15.5" fill="url(#paint2_linear_519_3808)" stroke="#A99BD0"/>
<rect x="1" y="-5" width="55" height="23" rx="11.5" fill="#DCD6FF"/>
</g>
<path d="M13.0859 11.625H15.0703L17.9922 19.9766L20.9141 11.625H22.8984L18.7891 23H17.1953L13.0859 11.625ZM12.0156 11.625H13.9922L14.3516 19.7656V23H12.0156V11.625ZM21.9922 11.625H23.9766V23H21.6328V19.7656L21.9922 11.625ZM30.7969 13.5703L27.7031 23H25.2109L29.4375 11.625H31.0234L30.7969 13.5703ZM33.3672 23L30.2656 13.5703L30.0156 11.625H31.6172L35.8672 23H33.3672ZM33.2266 18.7656V20.6016H27.2188V18.7656H33.2266ZM38.8516 11.625L40.9922 15.5938L43.1328 11.625H45.8125L42.5078 17.2656L45.8984 23H43.1953L40.9922 18.9531L38.7891 23H36.0703L39.4688 17.2656L36.1562 11.625H38.8516Z" fill="#271249"/>
<defs>
<linearGradient id="paint0_linear_519_3808" x1="28.5" y1="0" x2="28.5" y2="36" gradientUnits="userSpaceOnUse">
<stop stop-color="#D4CDFF"/>
<stop offset="1" stop-color="#867FB1"/>
</linearGradient>
<linearGradient id="paint1_linear_519_3808" x1="28.5" y1="0" x2="28.5" y2="36" gradientUnits="userSpaceOnUse">
<stop stop-color="#D4CDFF"/>
<stop offset="1" stop-color="#87839F"/>
</linearGradient>
<linearGradient id="paint2_linear_519_3808" x1="28.5" y1="0" x2="28.5" y2="36" gradientUnits="userSpaceOnUse">
<stop stop-color="#E2DDFF"/>
<stop offset="1" stop-color="#867FB1"/>
</linearGradient>
</defs>
</svg>
