<svg width="123" height="46" viewBox="0 0 123 46" fill="none" xmlns="http://www.w3.org/2000/svg">
<rect x="0.5" y="1.5" width="122" height="44" rx="20.5" fill="#260059" stroke="#5D00B5"/>
<rect x="2" y="4" width="119" height="39" rx="19.5" fill="#007219"/>
<rect x="2" y="4" width="119" height="39" rx="19.5" fill="#007219"/>
<rect x="2" width="119" height="39" rx="19.5" fill="url(#paint0_linear_519_3807)"/>
<g style="mix-blend-mode:soft-light">
<rect x="10" width="103" height="19" rx="9.5" fill="#83FFB5"/>
</g>
<mask id="path-6-outside-1_519_3807" maskUnits="userSpaceOnUse" x="44" y="3" width="37" height="20" fill="black">
<rect fill="white" x="44" y="3" width="37" height="20"/>
<path d="M49.152 12.536H56.912V14.056H49.152V12.536ZM48.912 15.272H57.168V16.84H48.912V15.272ZM53.712 13.016H55.392V20.152H53.712V13.016ZM50.592 13.08H52.224V16.152C52.224 17.176 51.792 19.288 50.112 20.44C49.856 20.104 49.28 19.592 48.88 19.336C50.24 18.504 50.592 16.952 50.592 16.136V13.08ZM47.248 8.216H51.28V9.464H47.248V8.216ZM54.672 8.216H58.72V9.464H54.672V8.216ZM57.968 6.024H59.856V18.216C59.856 19.176 59.68 19.72 59.104 20.04C58.512 20.36 57.68 20.408 56.448 20.392C56.4 19.88 56.144 18.984 55.888 18.488C56.592 18.52 57.392 18.52 57.632 18.52C57.888 18.52 57.968 18.424 57.968 18.184V6.024ZM47.424 6.024H52.496V11.72H47.424V10.344H50.688V7.4H47.424V6.024ZM58.944 6.024V7.4H55.36V10.376H58.944V11.752H53.536V6.024H58.944ZM46.288 6.024H48.176V20.44H46.288V6.024ZM71.728 18.088H76.832V19.816H71.728V18.088ZM70.768 13.736H77.856V20.376H75.952V15.464H72.592V20.44H70.768V13.736ZM69.744 10.696C71.648 10.616 74.544 10.456 77.264 10.28L77.248 11.992C74.672 12.2 71.92 12.408 69.936 12.552L69.744 10.696ZM74.784 8.68L76.304 7.912C77.312 9.256 78.368 11.048 78.752 12.264L77.088 13.144C76.752 11.944 75.76 10.088 74.784 8.68ZM72.528 5.4L74.656 5.8C74 7.848 73.136 10.184 72.416 11.688L70.8 11.272C71.456 9.688 72.176 7.224 72.528 5.4ZM63.568 8.6H68.752V10.376H63.568V8.6ZM65.728 5.4L67.536 5.608C66.864 9 65.872 13.304 65.088 16.184L63.52 15.336C64.256 12.824 65.184 8.584 65.728 5.4ZM64.48 15.096L65.52 13.752C67.2 14.792 69.312 16.344 70.24 17.544L69.088 19.08C68.192 17.88 66.16 16.2 64.48 15.096ZM68.048 8.6H68.368L68.704 8.552L69.84 8.76C69.472 15 67.936 18.536 64.752 20.504C64.496 20.04 63.984 19.336 63.6 18.968C66.32 17.544 67.744 14.008 68.048 8.952V8.6Z"/>
</mask>
<path d="M49.152 12.536H56.912V14.056H49.152V12.536ZM48.912 15.272H57.168V16.84H48.912V15.272ZM53.712 13.016H55.392V20.152H53.712V13.016ZM50.592 13.08H52.224V16.152C52.224 17.176 51.792 19.288 50.112 20.44C49.856 20.104 49.28 19.592 48.88 19.336C50.24 18.504 50.592 16.952 50.592 16.136V13.08ZM47.248 8.216H51.28V9.464H47.248V8.216ZM54.672 8.216H58.72V9.464H54.672V8.216ZM57.968 6.024H59.856V18.216C59.856 19.176 59.68 19.72 59.104 20.04C58.512 20.36 57.68 20.408 56.448 20.392C56.4 19.88 56.144 18.984 55.888 18.488C56.592 18.52 57.392 18.52 57.632 18.52C57.888 18.52 57.968 18.424 57.968 18.184V6.024ZM47.424 6.024H52.496V11.72H47.424V10.344H50.688V7.4H47.424V6.024ZM58.944 6.024V7.4H55.36V10.376H58.944V11.752H53.536V6.024H58.944ZM46.288 6.024H48.176V20.44H46.288V6.024ZM71.728 18.088H76.832V19.816H71.728V18.088ZM70.768 13.736H77.856V20.376H75.952V15.464H72.592V20.44H70.768V13.736ZM69.744 10.696C71.648 10.616 74.544 10.456 77.264 10.28L77.248 11.992C74.672 12.2 71.92 12.408 69.936 12.552L69.744 10.696ZM74.784 8.68L76.304 7.912C77.312 9.256 78.368 11.048 78.752 12.264L77.088 13.144C76.752 11.944 75.76 10.088 74.784 8.68ZM72.528 5.4L74.656 5.8C74 7.848 73.136 10.184 72.416 11.688L70.8 11.272C71.456 9.688 72.176 7.224 72.528 5.4ZM63.568 8.6H68.752V10.376H63.568V8.6ZM65.728 5.4L67.536 5.608C66.864 9 65.872 13.304 65.088 16.184L63.52 15.336C64.256 12.824 65.184 8.584 65.728 5.4ZM64.48 15.096L65.52 13.752C67.2 14.792 69.312 16.344 70.24 17.544L69.088 19.08C68.192 17.88 66.16 16.2 64.48 15.096ZM68.048 8.6H68.368L68.704 8.552L69.84 8.76C69.472 15 67.936 18.536 64.752 20.504C64.496 20.04 63.984 19.336 63.6 18.968C66.32 17.544 67.744 14.008 68.048 8.952V8.6Z" fill="white"/>
<path d="M49.152 12.536V11.036H47.652V12.536H49.152ZM56.912 12.536H58.412V11.036H56.912V12.536ZM56.912 14.056V15.556H58.412V14.056H56.912ZM49.152 14.056H47.652V15.556H49.152V14.056ZM48.912 15.272V13.772H47.412V15.272H48.912ZM57.168 15.272H58.668V13.772H57.168V15.272ZM57.168 16.84V18.34H58.668V16.84H57.168ZM48.912 16.84H47.412V18.34H48.912V16.84ZM53.712 13.016V11.516H52.212V13.016H53.712ZM55.392 13.016H56.892V11.516H55.392V13.016ZM55.392 20.152V21.652H56.892V20.152H55.392ZM53.712 20.152H52.212V21.652H53.712V20.152ZM50.592 13.08V11.58H49.092V13.08H50.592ZM52.224 13.08H53.724V11.58H52.224V13.08ZM50.112 20.44L48.9189 21.3491L49.7836 22.484L50.9603 21.6771L50.112 20.44ZM48.88 19.336L48.0972 18.0564L46.0525 19.3073L48.0714 20.5994L48.88 19.336ZM47.248 8.216V6.716H45.748V8.216H47.248ZM51.28 8.216H52.78V6.716H51.28V8.216ZM51.28 9.464V10.964H52.78V9.464H51.28ZM47.248 9.464H45.748V10.964H47.248V9.464ZM54.672 8.216V6.716H53.172V8.216H54.672ZM58.72 8.216H60.22V6.716H58.72V8.216ZM58.72 9.464V10.964H60.22V9.464H58.72ZM54.672 9.464H53.172V10.964H54.672V9.464ZM57.968 6.024V4.524H56.468V6.024H57.968ZM59.856 6.024H61.356V4.524H59.856V6.024ZM59.104 20.04L59.8173 21.3596L59.8249 21.3554L59.8325 21.3512L59.104 20.04ZM56.448 20.392L54.9546 20.532L55.0804 21.8744L56.4285 21.8919L56.448 20.392ZM55.888 18.488L55.9561 16.9895L53.3658 16.8718L54.5551 19.176L55.888 18.488ZM47.424 6.024V4.524H45.924V6.024H47.424ZM52.496 6.024H53.996V4.524H52.496V6.024ZM52.496 11.72V13.22H53.996V11.72H52.496ZM47.424 11.72H45.924V13.22H47.424V11.72ZM47.424 10.344V8.844H45.924V10.344H47.424ZM50.688 10.344V11.844H52.188V10.344H50.688ZM50.688 7.4H52.188V5.9H50.688V7.4ZM47.424 7.4H45.924V8.9H47.424V7.4ZM58.944 6.024H60.444V4.524H58.944V6.024ZM58.944 7.4V8.9H60.444V7.4H58.944ZM55.36 7.4V5.9H53.86V7.4H55.36ZM55.36 10.376H53.86V11.876H55.36V10.376ZM58.944 10.376H60.444V8.876H58.944V10.376ZM58.944 11.752V13.252H60.444V11.752H58.944ZM53.536 11.752H52.036V13.252H53.536V11.752ZM53.536 6.024V4.524H52.036V6.024H53.536ZM46.288 6.024V4.524H44.788V6.024H46.288ZM48.176 6.024H49.676V4.524H48.176V6.024ZM48.176 20.44V21.94H49.676V20.44H48.176ZM46.288 20.44H44.788V21.94H46.288V20.44ZM49.152 14.036H56.912V11.036H49.152V14.036ZM55.412 12.536V14.056H58.412V12.536H55.412ZM56.912 12.556H49.152V15.556H56.912V12.556ZM50.652 14.056V12.536H47.652V14.056H50.652ZM48.912 16.772H57.168V13.772H48.912V16.772ZM55.668 15.272V16.84H58.668V15.272H55.668ZM57.168 15.34H48.912V18.34H57.168V15.34ZM50.412 16.84V15.272H47.412V16.84H50.412ZM53.712 14.516H55.392V11.516H53.712V14.516ZM53.892 13.016V20.152H56.892V13.016H53.892ZM55.392 18.652H53.712V21.652H55.392V18.652ZM55.212 20.152V13.016H52.212V20.152H55.212ZM50.592 14.58H52.224V11.58H50.592V14.58ZM50.724 13.08V16.152H53.724V13.08H50.724ZM50.724 16.152C50.724 16.946 50.3577 18.4528 49.2637 19.2029L50.9603 21.6771C53.2263 20.1232 53.724 17.406 53.724 16.152H50.724ZM51.3051 19.5309C50.9249 19.0318 50.2095 18.406 49.6886 18.0726L48.0714 20.5994C48.3505 20.778 48.7871 21.1762 48.9189 21.3491L51.3051 19.5309ZM49.6628 20.6156C51.6479 19.4011 52.092 17.2219 52.092 16.136H49.092C49.092 16.357 49.0392 16.7433 48.8702 17.1324C48.7068 17.5084 48.4596 17.8348 48.0972 18.0564L49.6628 20.6156ZM52.092 16.136V13.08H49.092V16.136H52.092ZM47.248 9.716H51.28V6.716H47.248V9.716ZM49.78 8.216V9.464H52.78V8.216H49.78ZM51.28 7.964H47.248V10.964H51.28V7.964ZM48.748 9.464V8.216H45.748V9.464H48.748ZM54.672 9.716H58.72V6.716H54.672V9.716ZM57.22 8.216V9.464H60.22V8.216H57.22ZM58.72 7.964H54.672V10.964H58.72V7.964ZM56.172 9.464V8.216H53.172V9.464H56.172ZM57.968 7.524H59.856V4.524H57.968V7.524ZM58.356 6.024V18.216H61.356V6.024H58.356ZM58.356 18.216C58.356 18.4138 58.3467 18.5575 58.3327 18.6625C58.3188 18.7669 58.3028 18.8121 58.2994 18.8207C58.2982 18.8238 58.3086 18.798 58.3375 18.7651C58.3661 18.7325 58.387 18.7224 58.3755 18.7288L59.8325 21.3512C60.4212 21.0242 60.8477 20.5401 61.0926 19.9153C61.3113 19.3572 61.356 18.7577 61.356 18.216H58.356ZM58.3907 18.7204C58.1976 18.8248 57.7699 18.909 56.4675 18.8921L56.4285 21.8919C57.5901 21.907 58.8264 21.8952 59.8173 21.3596L58.3907 18.7204ZM57.9415 20.252C57.8758 19.5516 57.5663 18.4692 57.2209 17.8L54.5551 19.176C54.7217 19.4988 54.9242 20.2084 54.9546 20.532L57.9415 20.252ZM55.8199 19.9865C56.5623 20.0202 57.3941 20.02 57.632 20.02V17.02C57.3899 17.02 56.6217 17.0198 55.9561 16.9895L55.8199 19.9865ZM57.632 20.02C57.879 20.02 58.49 19.9877 58.9765 19.4825C59.4505 18.9902 59.468 18.3941 59.468 18.184H56.468C56.468 18.1719 56.4677 18.0793 56.503 17.9481C56.5417 17.8041 56.6286 17.5957 56.8155 17.4015C57.0042 17.2056 57.2146 17.1075 57.3706 17.0618C57.5118 17.0204 57.6132 17.02 57.632 17.02V20.02ZM59.468 18.184V6.024H56.468V18.184H59.468ZM47.424 7.524H52.496V4.524H47.424V7.524ZM50.996 6.024V11.72H53.996V6.024H50.996ZM52.496 10.22H47.424V13.22H52.496V10.22ZM48.924 11.72V10.344H45.924V11.72H48.924ZM47.424 11.844H50.688V8.844H47.424V11.844ZM52.188 10.344V7.4H49.188V10.344H52.188ZM50.688 5.9H47.424V8.9H50.688V5.9ZM48.924 7.4V6.024H45.924V7.4H48.924ZM57.444 6.024V7.4H60.444V6.024H57.444ZM58.944 5.9H55.36V8.9H58.944V5.9ZM53.86 7.4V10.376H56.86V7.4H53.86ZM55.36 11.876H58.944V8.876H55.36V11.876ZM57.444 10.376V11.752H60.444V10.376H57.444ZM58.944 10.252H53.536V13.252H58.944V10.252ZM55.036 11.752V6.024H52.036V11.752H55.036ZM53.536 7.524H58.944V4.524H53.536V7.524ZM46.288 7.524H48.176V4.524H46.288V7.524ZM46.676 6.024V20.44H49.676V6.024H46.676ZM48.176 18.94H46.288V21.94H48.176V18.94ZM47.788 20.44V6.024H44.788V20.44H47.788ZM71.728 18.088V16.588H70.228V18.088H71.728ZM76.832 18.088H78.332V16.588H76.832V18.088ZM76.832 19.816V21.316H78.332V19.816H76.832ZM71.728 19.816H70.228V21.316H71.728V19.816ZM70.768 13.736V12.236H69.268V13.736H70.768ZM77.856 13.736H79.356V12.236H77.856V13.736ZM77.856 20.376V21.876H79.356V20.376H77.856ZM75.952 20.376H74.452V21.876H75.952V20.376ZM75.952 15.464H77.452V13.964H75.952V15.464ZM72.592 15.464V13.964H71.092V15.464H72.592ZM72.592 20.44V21.94H74.092V20.44H72.592ZM70.768 20.44H69.268V21.94H70.768V20.44ZM69.744 10.696L69.681 9.19732L68.0879 9.26426L68.252 10.8503L69.744 10.696ZM77.264 10.28L78.7639 10.294L78.779 8.67883L77.1671 8.78313L77.264 10.28ZM77.248 11.992L77.3687 13.4871L78.7351 13.3768L78.7479 12.006L77.248 11.992ZM69.936 12.552L68.444 12.7063L68.5937 14.1534L70.0446 14.0481L69.936 12.552ZM74.784 8.68L74.1075 7.34119L72.5695 8.1183L73.5512 9.53454L74.784 8.68ZM76.304 7.912L77.504 7.012L76.7497 6.00622L75.6276 6.57319L76.304 7.912ZM78.752 12.264L79.4532 13.59L80.5591 13.0052L80.1824 11.8123L78.752 12.264ZM77.088 13.144L75.6436 13.5484L76.1451 15.3395L77.7892 14.47L77.088 13.144ZM72.528 5.4L72.8051 3.92582L71.338 3.65005L71.0552 5.11577L72.528 5.4ZM74.656 5.8L76.0845 6.25757L76.6027 4.63966L74.9331 4.32582L74.656 5.8ZM72.416 11.688L72.0421 13.1406L73.2364 13.4481L73.769 12.3357L72.416 11.688ZM70.8 11.272L69.4141 10.6981L68.7532 12.294L70.4261 12.7246L70.8 11.272ZM63.568 8.6V7.1H62.068V8.6H63.568ZM68.752 8.6H70.252V7.1H68.752V8.6ZM68.752 10.376V11.876H70.252V10.376H68.752ZM63.568 10.376H62.068V11.876H63.568V10.376ZM65.728 5.4L65.8994 3.90983L64.4886 3.74752L64.2494 5.14738L65.728 5.4ZM67.536 5.608L69.0074 5.8995L69.3235 4.30375L67.7074 4.11783L67.536 5.608ZM65.088 16.184L64.3744 17.5034L66.0384 18.4033L66.5353 16.578L65.088 16.184ZM63.52 15.336L62.0805 14.9142L61.7394 16.0784L62.8064 16.6554L63.52 15.336ZM64.48 15.096L63.2937 14.178L62.302 15.4596L63.6562 16.3496L64.48 15.096ZM65.52 13.752L66.3095 12.4766L65.1606 11.7654L64.3337 12.834L65.52 13.752ZM70.24 17.544L71.44 18.444L72.1254 17.5301L71.4266 16.6264L70.24 17.544ZM69.088 19.08L67.8861 19.9774L69.0853 21.5836L70.288 19.98L69.088 19.08ZM68.048 8.6V7.1H66.548V8.6H68.048ZM68.368 8.6V10.1H68.4746L68.5801 10.0849L68.368 8.6ZM68.704 8.552L68.9742 7.07653L68.7338 7.03252L68.4919 7.06708L68.704 8.552ZM69.84 8.76L71.3374 8.84831L71.4155 7.52354L70.1102 7.28453L69.84 8.76ZM64.752 20.504L63.4386 21.2286L64.2 22.6086L65.5406 21.7799L64.752 20.504ZM63.6 18.968L62.9043 17.6391L61.0554 18.607L62.5621 20.051L63.6 18.968ZM68.048 8.952L69.5453 9.04203L69.548 8.99705V8.952H68.048ZM71.728 19.588H76.832V16.588H71.728V19.588ZM75.332 18.088V19.816H78.332V18.088H75.332ZM76.832 18.316H71.728V21.316H76.832V18.316ZM73.228 19.816V18.088H70.228V19.816H73.228ZM70.768 15.236H77.856V12.236H70.768V15.236ZM76.356 13.736V20.376H79.356V13.736H76.356ZM77.856 18.876H75.952V21.876H77.856V18.876ZM77.452 20.376V15.464H74.452V20.376H77.452ZM75.952 13.964H72.592V16.964H75.952V13.964ZM71.092 15.464V20.44H74.092V15.464H71.092ZM72.592 18.94H70.768V21.94H72.592V18.94ZM72.268 20.44V13.736H69.268V20.44H72.268ZM69.807 12.1947C71.7258 12.1141 74.6338 11.9533 77.3609 11.7769L77.1671 8.78313C74.4542 8.95867 71.5702 9.11795 69.681 9.19732L69.807 12.1947ZM75.7641 10.266L75.7481 11.978L78.7479 12.006L78.7639 10.294L75.7641 10.266ZM77.1273 10.4969C74.556 10.7045 71.8081 10.9122 69.8274 11.0559L70.0446 14.0481C72.0319 13.9038 74.788 13.6955 77.3687 13.4871L77.1273 10.4969ZM71.428 12.3977L71.236 10.5417L68.252 10.8503L68.444 12.7063L71.428 12.3977ZM75.4605 10.0188L76.9805 9.25081L75.6276 6.57319L74.1075 7.34119L75.4605 10.0188ZM75.104 8.812C76.0703 10.1005 77.0118 11.7346 77.3216 12.7157L80.1824 11.8123C79.7242 10.3614 78.5537 8.41155 77.504 7.012L75.104 8.812ZM78.0508 10.938L76.3868 11.818L77.7892 14.47L79.4532 13.59L78.0508 10.938ZM78.5324 12.7396C78.1317 11.3083 77.0346 9.29372 76.0168 7.82546L73.5512 9.53454C74.4854 10.8823 75.3723 12.5797 75.6436 13.5484L78.5324 12.7396ZM72.2509 6.87418L74.3789 7.27418L74.9331 4.32582L72.8051 3.92582L72.2509 6.87418ZM73.2275 5.34243C72.5804 7.3627 71.7405 9.62525 71.063 11.0403L73.769 12.3357C74.5315 10.7427 75.4196 8.3333 76.0845 6.25757L73.2275 5.34243ZM72.7899 10.2354L71.1739 9.81936L70.4261 12.7246L72.0421 13.1406L72.7899 10.2354ZM72.1859 11.8459C72.885 10.1577 73.632 7.59528 74.0008 5.68423L71.0552 5.11577C70.72 6.85271 70.027 9.21827 69.4141 10.6981L72.1859 11.8459ZM63.568 10.1H68.752V7.1H63.568V10.1ZM67.252 8.6V10.376H70.252V8.6H67.252ZM68.752 8.876H63.568V11.876H68.752V8.876ZM65.068 10.376V8.6H62.068V10.376H65.068ZM65.5566 6.89017L67.3646 7.09817L67.7074 4.11783L65.8994 3.90983L65.5566 6.89017ZM66.0646 5.3165C65.398 8.68125 64.4137 12.9503 63.6407 15.79L66.5353 16.578C67.3303 13.6577 68.33 9.31875 69.0074 5.8995L66.0646 5.3165ZM65.8016 14.8646L64.2336 14.0166L62.8064 16.6554L64.3744 17.5034L65.8016 14.8646ZM64.9595 15.7578C65.7166 13.1736 66.6563 8.87363 67.2066 5.65262L64.2494 5.14738C63.7118 8.29437 62.7954 12.4744 62.0805 14.9142L64.9595 15.7578ZM65.6663 16.014L66.7063 14.67L64.3337 12.834L63.2937 14.178L65.6663 16.014ZM64.7305 15.0274C65.5305 15.5227 66.4327 16.1397 67.2378 16.7695C68.0635 17.4153 68.7054 18.0116 69.0534 18.4616L71.4266 16.6264C70.8466 15.8764 69.9685 15.0967 69.0862 14.4065C68.1833 13.7003 67.1895 13.0213 66.3095 12.4766L64.7305 15.0274ZM69.04 16.644L67.888 18.18L70.288 19.98L71.44 18.444L69.04 16.644ZM70.2899 18.1826C69.2382 16.774 67.0345 14.9798 65.3038 13.8424L63.6562 16.3496C65.2855 17.4202 67.1458 18.986 67.8861 19.9774L70.2899 18.1826ZM68.048 10.1H68.368V7.1H68.048V10.1ZM68.5801 10.0849L68.9161 10.0369L68.4919 7.06708L68.1559 7.11508L68.5801 10.0849ZM68.4338 10.0275L69.5698 10.2355L70.1102 7.28453L68.9742 7.07653L68.4338 10.0275ZM68.3426 8.67169C67.9842 14.7494 66.5159 17.6504 63.9634 19.2281L65.5406 21.7799C69.3561 19.4216 70.9598 15.2506 71.3374 8.84831L68.3426 8.67169ZM66.0654 19.7794C65.7532 19.2135 65.1541 18.3797 64.6379 17.885L62.5621 20.051C62.8139 20.2923 63.2388 20.8665 63.4386 21.2286L66.0654 19.7794ZM64.2957 20.2969C67.7675 18.4793 69.2358 14.19 69.5453 9.04203L66.5507 8.86197C66.2522 13.826 64.8725 16.6087 62.9043 17.6391L64.2957 20.2969ZM69.548 8.952V8.6H66.548V8.952H69.548Z" fill="#0B9120" mask="url(#path-6-outside-1_519_3807)"/>
<mask id="path-8-outside-2_519_3807" maskUnits="userSpaceOnUse" x="37" y="23" width="50" height="15" fill="black">
<rect fill="white" x="37" y="23" width="50" height="15"/>
<path d="M38.552 30.488H49.436V31.748H38.552V30.488ZM41.36 27.032H47.84V28.148H41.36V27.032ZM41.36 28.748H47.84V29.864H41.36V28.748ZM39.08 34.688C40.496 34.532 42.656 34.208 44.648 33.92L44.708 35.192C42.86 35.492 40.868 35.792 39.404 36.02L39.08 34.688ZM44.504 30.836C45.272 32.936 46.952 34.304 49.664 34.808C49.352 35.108 48.944 35.708 48.752 36.104C45.812 35.408 44.156 33.788 43.184 31.16L44.504 30.836ZM47.912 31.592L49.064 32.408C48.188 33.044 47.096 33.68 46.256 34.076L45.296 33.332C46.124 32.9 47.24 32.168 47.912 31.592ZM40.568 25.22H48.176V26.408H42.044V31.016H40.568V25.22ZM40.556 30.86H42.044V34.856L40.556 35.012V30.86ZM57.188 24.812H58.64V26.936H57.188V24.812ZM54.608 26.36H61.52V28.916H60.116V27.62H55.952V28.916H54.608V26.36ZM56.852 27.872L58.28 28.088C57.704 29.924 56.888 32.18 56.288 33.656L54.992 33.236C55.58 31.856 56.36 29.6 56.852 27.872ZM54.524 29.576H61.652V30.872H54.524V29.576ZM59.132 30.404L60.668 30.452C60.068 33.992 58.328 35.396 54.752 36.092C54.656 35.756 54.308 35.156 54.068 34.856C57.272 34.4 58.82 33.272 59.132 30.404ZM55.748 33.092L56.576 32.048C58.328 32.684 60.572 33.848 61.664 34.844L60.752 36.044C59.732 35.048 57.548 33.8 55.748 33.092ZM50.24 30.956C51.308 30.728 52.892 30.332 54.392 29.96L54.56 31.256C53.192 31.64 51.74 32.036 50.6 32.336L50.24 30.956ZM50.42 27.08H54.416V28.412H50.42V27.08ZM51.872 24.812H53.264V34.58C53.264 35.252 53.132 35.612 52.736 35.828C52.34 36.044 51.764 36.08 50.924 36.08C50.888 35.72 50.708 35.144 50.528 34.784C50.996 34.796 51.488 34.796 51.644 34.796C51.812 34.796 51.872 34.736 51.872 34.568V24.812ZM64.7 28.988H71.228V30.32H64.7V28.988ZM64.7 31.556H71.228V32.888H64.7V31.556ZM64.7 34.136H71.228V35.468H64.7V34.136ZM63.716 26.372H72.44V36.044H70.904V27.752H65.18V36.068H63.716V26.372ZM67.124 24.8L68.864 24.98C68.576 25.784 68.228 26.576 67.964 27.104L66.644 26.864C66.836 26.264 67.04 25.424 67.124 24.8ZM74.696 32.576H80.3V33.596H74.696V32.576ZM74.42 26.864H80.42V27.908H74.42V26.864ZM76.808 26.012H78.104V34.616H76.808V26.012ZM74.36 34.484C75.848 34.376 78.14 34.208 80.3 34.016L80.312 35.108C78.272 35.324 76.088 35.54 74.528 35.684L74.36 34.484ZM75.884 30.656V31.208H79.052V30.656H75.884ZM75.884 29.276V29.816H79.052V29.276H75.884ZM74.732 28.376H80.24V32.108H74.732V28.376ZM79.652 24.872L80.288 25.952C78.752 26.264 76.568 26.444 74.768 26.48C74.72 26.192 74.588 25.736 74.456 25.46C76.244 25.376 78.332 25.16 79.652 24.872ZM80.42 27.524H84.572V28.844H80.42V27.524ZM83.996 27.524H85.376C85.376 27.524 85.364 27.992 85.364 28.16C85.256 33.104 85.16 34.856 84.764 35.396C84.5 35.804 84.224 35.936 83.828 36.008C83.456 36.08 82.892 36.08 82.328 36.056C82.292 35.66 82.136 35.072 81.908 34.688C82.424 34.736 82.88 34.736 83.12 34.736C83.3 34.736 83.42 34.7 83.528 34.532C83.804 34.172 83.9 32.48 83.996 27.836V27.524ZM81.572 25.016H82.952C82.94 30.14 82.928 33.992 80.156 36.176C79.952 35.828 79.484 35.336 79.16 35.096C81.692 33.164 81.56 29.804 81.572 25.016Z"/>
</mask>
<path d="M38.552 30.488H49.436V31.748H38.552V30.488ZM41.36 27.032H47.84V28.148H41.36V27.032ZM41.36 28.748H47.84V29.864H41.36V28.748ZM39.08 34.688C40.496 34.532 42.656 34.208 44.648 33.92L44.708 35.192C42.86 35.492 40.868 35.792 39.404 36.02L39.08 34.688ZM44.504 30.836C45.272 32.936 46.952 34.304 49.664 34.808C49.352 35.108 48.944 35.708 48.752 36.104C45.812 35.408 44.156 33.788 43.184 31.16L44.504 30.836ZM47.912 31.592L49.064 32.408C48.188 33.044 47.096 33.68 46.256 34.076L45.296 33.332C46.124 32.9 47.24 32.168 47.912 31.592ZM40.568 25.22H48.176V26.408H42.044V31.016H40.568V25.22ZM40.556 30.86H42.044V34.856L40.556 35.012V30.86ZM57.188 24.812H58.64V26.936H57.188V24.812ZM54.608 26.36H61.52V28.916H60.116V27.62H55.952V28.916H54.608V26.36ZM56.852 27.872L58.28 28.088C57.704 29.924 56.888 32.18 56.288 33.656L54.992 33.236C55.58 31.856 56.36 29.6 56.852 27.872ZM54.524 29.576H61.652V30.872H54.524V29.576ZM59.132 30.404L60.668 30.452C60.068 33.992 58.328 35.396 54.752 36.092C54.656 35.756 54.308 35.156 54.068 34.856C57.272 34.4 58.82 33.272 59.132 30.404ZM55.748 33.092L56.576 32.048C58.328 32.684 60.572 33.848 61.664 34.844L60.752 36.044C59.732 35.048 57.548 33.8 55.748 33.092ZM50.24 30.956C51.308 30.728 52.892 30.332 54.392 29.96L54.56 31.256C53.192 31.64 51.74 32.036 50.6 32.336L50.24 30.956ZM50.42 27.08H54.416V28.412H50.42V27.08ZM51.872 24.812H53.264V34.58C53.264 35.252 53.132 35.612 52.736 35.828C52.34 36.044 51.764 36.08 50.924 36.08C50.888 35.72 50.708 35.144 50.528 34.784C50.996 34.796 51.488 34.796 51.644 34.796C51.812 34.796 51.872 34.736 51.872 34.568V24.812ZM64.7 28.988H71.228V30.32H64.7V28.988ZM64.7 31.556H71.228V32.888H64.7V31.556ZM64.7 34.136H71.228V35.468H64.7V34.136ZM63.716 26.372H72.44V36.044H70.904V27.752H65.18V36.068H63.716V26.372ZM67.124 24.8L68.864 24.98C68.576 25.784 68.228 26.576 67.964 27.104L66.644 26.864C66.836 26.264 67.04 25.424 67.124 24.8ZM74.696 32.576H80.3V33.596H74.696V32.576ZM74.42 26.864H80.42V27.908H74.42V26.864ZM76.808 26.012H78.104V34.616H76.808V26.012ZM74.36 34.484C75.848 34.376 78.14 34.208 80.3 34.016L80.312 35.108C78.272 35.324 76.088 35.54 74.528 35.684L74.36 34.484ZM75.884 30.656V31.208H79.052V30.656H75.884ZM75.884 29.276V29.816H79.052V29.276H75.884ZM74.732 28.376H80.24V32.108H74.732V28.376ZM79.652 24.872L80.288 25.952C78.752 26.264 76.568 26.444 74.768 26.48C74.72 26.192 74.588 25.736 74.456 25.46C76.244 25.376 78.332 25.16 79.652 24.872ZM80.42 27.524H84.572V28.844H80.42V27.524ZM83.996 27.524H85.376C85.376 27.524 85.364 27.992 85.364 28.16C85.256 33.104 85.16 34.856 84.764 35.396C84.5 35.804 84.224 35.936 83.828 36.008C83.456 36.08 82.892 36.08 82.328 36.056C82.292 35.66 82.136 35.072 81.908 34.688C82.424 34.736 82.88 34.736 83.12 34.736C83.3 34.736 83.42 34.7 83.528 34.532C83.804 34.172 83.9 32.48 83.996 27.836V27.524ZM81.572 25.016H82.952C82.94 30.14 82.928 33.992 80.156 36.176C79.952 35.828 79.484 35.336 79.16 35.096C81.692 33.164 81.56 29.804 81.572 25.016Z" fill="white"/>
<path d="M38.552 30.488V29.488H37.552V30.488H38.552ZM49.436 30.488H50.436V29.488H49.436V30.488ZM49.436 31.748V32.748H50.436V31.748H49.436ZM38.552 31.748H37.552V32.748H38.552V31.748ZM41.36 27.032V26.032H40.36V27.032H41.36ZM47.84 27.032H48.84V26.032H47.84V27.032ZM47.84 28.148V29.148H48.84V28.148H47.84ZM41.36 28.148H40.36V29.148H41.36V28.148ZM41.36 28.748V27.748H40.36V28.748H41.36ZM47.84 28.748H48.84V27.748H47.84V28.748ZM47.84 29.864V30.864H48.84V29.864H47.84ZM41.36 29.864H40.36V30.864H41.36V29.864ZM39.08 34.688L38.9705 33.694L37.8394 33.8186L38.1083 34.9244L39.08 34.688ZM44.648 33.92L45.6469 33.8729L45.595 32.7727L44.5049 32.9303L44.648 33.92ZM44.708 35.192L44.8682 36.1791L45.7489 36.0361L45.7069 35.1449L44.708 35.192ZM39.404 36.02L38.4323 36.2564L38.6496 37.1495L39.5579 37.0081L39.404 36.02ZM44.504 30.836L45.4432 30.4925L45.1355 29.6513L44.2656 29.8648L44.504 30.836ZM49.664 34.808L50.3571 35.5288L51.7596 34.1803L49.8467 33.8248L49.664 34.808ZM48.752 36.104L48.5216 37.0771L49.302 37.2618L49.6518 36.5403L48.752 36.104ZM43.184 31.16L42.9456 30.1888L41.8574 30.4559L42.2461 31.5069L43.184 31.16ZM47.912 31.592L48.49 30.776L47.8535 30.3251L47.2612 30.8327L47.912 31.592ZM49.064 32.408L49.6515 33.2172L50.7799 32.398L49.642 31.592L49.064 32.408ZM46.256 34.076L45.6434 34.8664L46.1279 35.2419L46.6824 34.9805L46.256 34.076ZM45.296 33.332L44.8334 32.4454L43.4505 33.1669L44.6834 34.1224L45.296 33.332ZM40.568 25.22V24.22H39.568V25.22H40.568ZM48.176 25.22H49.176V24.22H48.176V25.22ZM48.176 26.408V27.408H49.176V26.408H48.176ZM42.044 26.408V25.408H41.044V26.408H42.044ZM42.044 31.016V32.016H43.044V31.016H42.044ZM40.568 31.016H39.568V32.016H40.568V31.016ZM40.556 30.86V29.86H39.556V30.86H40.556ZM42.044 30.86H43.044V29.86H42.044V30.86ZM42.044 34.856L42.1483 35.8505L43.044 35.7566V34.856H42.044ZM40.556 35.012H39.556V36.1223L40.6603 36.0065L40.556 35.012ZM38.552 31.488H49.436V29.488H38.552V31.488ZM48.436 30.488V31.748H50.436V30.488H48.436ZM49.436 30.748H38.552V32.748H49.436V30.748ZM39.552 31.748V30.488H37.552V31.748H39.552ZM41.36 28.032H47.84V26.032H41.36V28.032ZM46.84 27.032V28.148H48.84V27.032H46.84ZM47.84 27.148H41.36V29.148H47.84V27.148ZM42.36 28.148V27.032H40.36V28.148H42.36ZM41.36 29.748H47.84V27.748H41.36V29.748ZM46.84 28.748V29.864H48.84V28.748H46.84ZM47.84 28.864H41.36V30.864H47.84V28.864ZM42.36 29.864V28.748H40.36V29.864H42.36ZM39.1895 35.682C40.6275 35.5236 42.8134 35.1956 44.7911 34.9097L44.5049 32.9303C42.4986 33.2204 40.3645 33.5404 38.9705 33.694L39.1895 35.682ZM43.6491 33.9671L43.7091 35.2391L45.7069 35.1449L45.6469 33.8729L43.6491 33.9671ZM44.5478 34.2049C42.7037 34.5043 40.7215 34.8028 39.2501 35.0319L39.5579 37.0081C41.0145 36.7812 43.0163 36.4797 44.8682 36.1791L44.5478 34.2049ZM40.3757 35.7836L40.0517 34.4516L38.1083 34.9244L38.4323 36.2564L40.3757 35.7836ZM43.5648 31.1795C44.4741 33.6658 46.4828 35.2339 49.4813 35.7912L49.8467 33.8248C47.4212 33.3741 46.0699 32.2062 45.4432 30.4925L43.5648 31.1795ZM48.9709 34.0872C48.5552 34.4868 48.0832 35.1912 47.8522 35.6677L49.6518 36.5403C49.8048 36.2248 50.1488 35.7292 50.3571 35.5288L48.9709 34.0872ZM48.9824 35.1309C47.645 34.8143 46.6579 34.3028 45.9025 33.6164C45.1452 32.9283 44.5664 32.015 44.1219 30.8131L42.2461 31.5069C42.7736 32.933 43.5088 34.1437 44.5575 35.0966C45.6081 36.0512 46.919 36.6977 48.5216 37.0771L48.9824 35.1309ZM43.4224 32.1312L44.7424 31.8072L44.2656 29.8648L42.9456 30.1888L43.4224 32.1312ZM47.334 32.408L48.486 33.224L49.642 31.592L48.49 30.776L47.334 32.408ZM48.4765 31.5988C47.6518 32.1975 46.6138 32.8018 45.8296 33.1715L46.6824 34.9805C47.5782 34.5582 48.7242 33.8905 49.6515 33.2172L48.4765 31.5988ZM46.8686 33.2856L45.9086 32.5416L44.6834 34.1224L45.6434 34.8664L46.8686 33.2856ZM45.7586 34.2186C46.6419 33.7577 47.8236 32.9848 48.5628 32.3513L47.2612 30.8327C46.6564 31.3512 45.6061 32.0423 44.8334 32.4454L45.7586 34.2186ZM40.568 26.22H48.176V24.22H40.568V26.22ZM47.176 25.22V26.408H49.176V25.22H47.176ZM48.176 25.408H42.044V27.408H48.176V25.408ZM41.044 26.408V31.016H43.044V26.408H41.044ZM42.044 30.016H40.568V32.016H42.044V30.016ZM41.568 31.016V25.22H39.568V31.016H41.568ZM40.556 31.86H42.044V29.86H40.556V31.86ZM41.044 30.86V34.856H43.044V30.86H41.044ZM41.9397 33.8615L40.4517 34.0175L40.6603 36.0065L42.1483 35.8505L41.9397 33.8615ZM41.556 35.012V30.86H39.556V35.012H41.556ZM57.188 24.812V23.812H56.188V24.812H57.188ZM58.64 24.812H59.64V23.812H58.64V24.812ZM58.64 26.936V27.936H59.64V26.936H58.64ZM57.188 26.936H56.188V27.936H57.188V26.936ZM54.608 26.36V25.36H53.608V26.36H54.608ZM61.52 26.36H62.52V25.36H61.52V26.36ZM61.52 28.916V29.916H62.52V28.916H61.52ZM60.116 28.916H59.116V29.916H60.116V28.916ZM60.116 27.62H61.116V26.62H60.116V27.62ZM55.952 27.62V26.62H54.952V27.62H55.952ZM55.952 28.916V29.916H56.952V28.916H55.952ZM54.608 28.916H53.608V29.916H54.608V28.916ZM56.852 27.872L57.0016 26.8832L56.1313 26.7516L55.8902 27.5982L56.852 27.872ZM58.28 28.088L59.2341 28.3873L59.5835 27.2738L58.4296 27.0992L58.28 28.088ZM56.288 33.656L55.9797 34.6073L56.8642 34.8939L57.2144 34.0326L56.288 33.656ZM54.992 33.236L54.072 32.844L53.6433 33.8501L54.6837 34.1873L54.992 33.236ZM54.524 29.576V28.576H53.524V29.576H54.524ZM61.652 29.576H62.652V28.576H61.652V29.576ZM61.652 30.872V31.872H62.652V30.872H61.652ZM54.524 30.872H53.524V31.872H54.524V30.872ZM59.132 30.404L59.1632 29.4045L58.238 29.3756L58.1379 30.2959L59.132 30.404ZM60.668 30.452L61.6539 30.6191L61.8456 29.4883L60.6992 29.4525L60.668 30.452ZM54.752 36.092L53.7905 36.3667L54.0425 37.2489L54.943 37.0736L54.752 36.092ZM54.068 34.856L53.9271 33.866L52.1928 34.1128L53.2871 35.4807L54.068 34.856ZM55.748 33.092L54.9645 32.4706L54.1256 33.5284L55.382 34.0226L55.748 33.092ZM56.576 32.048L56.9172 31.108L56.2401 30.8622L55.7925 31.4266L56.576 32.048ZM61.664 34.844L62.4602 35.4491L63.0133 34.7212L62.3379 34.1052L61.664 34.844ZM60.752 36.044L60.0534 36.7595L60.8632 37.5503L61.5482 36.6491L60.752 36.044ZM50.24 30.956L50.0312 29.978L49.0084 30.1964L49.2724 31.2084L50.24 30.956ZM54.392 29.96L55.3837 29.8314L55.2396 28.7195L54.1513 28.9894L54.392 29.96ZM54.56 31.256L54.8303 32.2188L55.6629 31.9851L55.5517 31.1274L54.56 31.256ZM50.6 32.336L49.6324 32.5884L49.8853 33.5581L50.8545 33.3031L50.6 32.336ZM50.42 27.08V26.08H49.42V27.08H50.42ZM54.416 27.08H55.416V26.08H54.416V27.08ZM54.416 28.412V29.412H55.416V28.412H54.416ZM50.42 28.412H49.42V29.412H50.42V28.412ZM51.872 24.812V23.812H50.872V24.812H51.872ZM53.264 24.812H54.264V23.812H53.264V24.812ZM52.736 35.828L53.2149 36.7059L52.736 35.828ZM50.924 36.08L49.929 36.1795L50.019 37.08H50.924V36.08ZM50.528 34.784L50.5536 33.7843L48.8888 33.7416L49.6336 35.2312L50.528 34.784ZM57.188 25.812H58.64V23.812H57.188V25.812ZM57.64 24.812V26.936H59.64V24.812H57.64ZM58.64 25.936H57.188V27.936H58.64V25.936ZM58.188 26.936V24.812H56.188V26.936H58.188ZM54.608 27.36H61.52V25.36H54.608V27.36ZM60.52 26.36V28.916H62.52V26.36H60.52ZM61.52 27.916H60.116V29.916H61.52V27.916ZM61.116 28.916V27.62H59.116V28.916H61.116ZM60.116 26.62H55.952V28.62H60.116V26.62ZM54.952 27.62V28.916H56.952V27.62H54.952ZM55.952 27.916H54.608V29.916H55.952V27.916ZM55.608 28.916V26.36H53.608V28.916H55.608ZM56.7024 28.8608L58.1304 29.0768L58.4296 27.0992L57.0016 26.8832L56.7024 28.8608ZM57.3259 27.7887C56.7579 29.5992 55.9511 31.8294 55.3616 33.2794L57.2144 34.0326C57.8249 32.5306 58.6501 30.2488 59.2341 28.3873L57.3259 27.7887ZM56.5963 32.7047L55.3003 32.2847L54.6837 34.1873L55.9797 34.6073L56.5963 32.7047ZM55.912 33.628C56.5196 32.2019 57.3129 29.9052 57.8138 28.1458L55.8902 27.5982C55.4071 29.2948 54.6404 31.5101 54.072 32.844L55.912 33.628ZM54.524 30.576H61.652V28.576H54.524V30.576ZM60.652 29.576V30.872H62.652V29.576H60.652ZM61.652 29.872H54.524V31.872H61.652V29.872ZM55.524 30.872V29.576H53.524V30.872H55.524ZM59.1008 31.4035L60.6368 31.4515L60.6992 29.4525L59.1632 29.4045L59.1008 31.4035ZM59.6821 30.2849C59.4051 31.9188 58.8903 32.9204 58.1489 33.6026C57.3898 34.3011 56.2724 34.7773 54.561 35.1104L54.943 37.0736C56.8076 36.7107 58.3482 36.1369 59.5031 35.0744C60.6757 33.9956 61.3309 32.5252 61.6539 30.6191L59.6821 30.2849ZM55.7135 35.8173C55.6327 35.5342 55.475 35.2182 55.3357 34.9705C55.19 34.7112 55.0133 34.4369 54.8489 34.2313L53.2871 35.4807C53.3627 35.5751 53.48 35.7508 53.5923 35.9505C53.711 36.1618 53.7753 36.3138 53.7905 36.3667L55.7135 35.8173ZM54.2089 35.846C55.8755 35.6088 57.2882 35.1775 58.3294 34.2987C59.4089 33.3878 59.9515 32.1171 60.1261 30.5121L58.1379 30.2959C58.0005 31.5589 57.6131 32.2862 57.0396 32.7703C56.4278 33.2865 55.4645 33.6472 53.9271 33.866L54.2089 35.846ZM56.5315 33.7134L57.3595 32.6694L55.7925 31.4266L54.9645 32.4706L56.5315 33.7134ZM56.2348 32.988C57.9335 33.6047 60.0376 34.7141 60.9901 35.5828L62.3379 34.1052C61.1064 32.9819 58.7225 31.7633 56.9172 31.108L56.2348 32.988ZM60.8678 34.2389L59.9558 35.4389L61.5482 36.6491L62.4602 35.4491L60.8678 34.2389ZM61.4506 35.3285C60.2961 34.2011 57.9744 32.8931 56.114 32.1614L55.382 34.0226C57.1216 34.7069 59.1679 35.8949 60.0534 36.7595L61.4506 35.3285ZM50.4488 31.934C51.5371 31.7016 53.1419 31.3003 54.6327 30.9306L54.1513 28.9894C52.6421 29.3637 51.0789 29.7544 50.0312 29.978L50.4488 31.934ZM53.4003 30.0886L53.5683 31.3846L55.5517 31.1274L55.3837 29.8314L53.4003 30.0886ZM54.2897 30.2932C52.926 30.676 51.4793 31.0706 50.3455 31.3689L50.8545 33.3031C52.0007 33.0014 53.458 32.604 54.8303 32.2188L54.2897 30.2932ZM51.5676 32.0836L51.2076 30.7036L49.2724 31.2084L49.6324 32.5884L51.5676 32.0836ZM50.42 28.08H54.416V26.08H50.42V28.08ZM53.416 27.08V28.412H55.416V27.08H53.416ZM54.416 27.412H50.42V29.412H54.416V27.412ZM51.42 28.412V27.08H49.42V28.412H51.42ZM51.872 25.812H53.264V23.812H51.872V25.812ZM52.264 24.812V34.58H54.264V24.812H52.264ZM52.264 34.58C52.264 34.7177 52.2571 34.8169 52.247 34.8885C52.237 34.9595 52.2257 34.9898 52.2234 34.9953C52.2227 34.997 52.2294 34.9815 52.2467 34.9625C52.2633 34.9444 52.2725 34.9417 52.2571 34.9501L53.2149 36.7059C53.6031 36.4941 53.8992 36.1797 54.0736 35.7547C54.2298 35.3741 54.264 34.9617 54.264 34.58H52.264ZM52.2571 34.9501C52.2146 34.9733 52.1113 35.0139 51.8768 35.0422C51.642 35.0705 51.3391 35.08 50.924 35.08V37.08C51.3489 37.08 51.754 37.0715 52.1162 37.0278C52.4787 36.9841 52.8614 36.8987 53.2149 36.7059L52.2571 34.9501ZM51.919 35.9805C51.8688 35.4778 51.6462 34.7843 51.4224 34.3368L49.6336 35.2312C49.7698 35.5037 49.9072 35.9622 49.929 36.1795L51.919 35.9805ZM50.5024 35.7837C50.9846 35.796 51.4881 35.796 51.644 35.796V33.796C51.4879 33.796 51.0074 33.796 50.5536 33.7843L50.5024 35.7837ZM51.644 35.796C51.7995 35.796 52.2017 35.7785 52.5281 35.4521C52.8545 35.1257 52.872 34.7235 52.872 34.568H50.872C50.872 34.5578 50.872 34.4935 50.8976 34.403C50.9256 34.3035 50.987 34.1647 51.1139 34.0379C51.2407 33.911 51.3795 33.8496 51.479 33.8216C51.5695 33.796 51.6338 33.796 51.644 33.796V35.796ZM52.872 34.568V24.812H50.872V34.568H52.872ZM64.7 28.988V27.988H63.7V28.988H64.7ZM71.228 28.988H72.228V27.988H71.228V28.988ZM71.228 30.32V31.32H72.228V30.32H71.228ZM64.7 30.32H63.7V31.32H64.7V30.32ZM64.7 31.556V30.556H63.7V31.556H64.7ZM71.228 31.556H72.228V30.556H71.228V31.556ZM71.228 32.888V33.888H72.228V32.888H71.228ZM64.7 32.888H63.7V33.888H64.7V32.888ZM64.7 34.136V33.136H63.7V34.136H64.7ZM71.228 34.136H72.228V33.136H71.228V34.136ZM71.228 35.468V36.468H72.228V35.468H71.228ZM64.7 35.468H63.7V36.468H64.7V35.468ZM63.716 26.372V25.372H62.716V26.372H63.716ZM72.44 26.372H73.44V25.372H72.44V26.372ZM72.44 36.044V37.044H73.44V36.044H72.44ZM70.904 36.044H69.904V37.044H70.904V36.044ZM70.904 27.752H71.904V26.752H70.904V27.752ZM65.18 27.752V26.752H64.18V27.752H65.18ZM65.18 36.068V37.068H66.18V36.068H65.18ZM63.716 36.068H62.716V37.068H63.716V36.068ZM67.124 24.8L67.2269 23.8053L66.2623 23.7055L66.1329 24.6666L67.124 24.8ZM68.864 24.98L69.8054 25.3172L70.2355 24.1165L68.9669 23.9853L68.864 24.98ZM67.964 27.104L67.7851 28.0879L68.523 28.222L68.8584 27.5512L67.964 27.104ZM66.644 26.864L65.6916 26.5592L65.3444 27.6441L66.4651 27.8479L66.644 26.864ZM64.7 29.988H71.228V27.988H64.7V29.988ZM70.228 28.988V30.32H72.228V28.988H70.228ZM71.228 29.32H64.7V31.32H71.228V29.32ZM65.7 30.32V28.988H63.7V30.32H65.7ZM64.7 32.556H71.228V30.556H64.7V32.556ZM70.228 31.556V32.888H72.228V31.556H70.228ZM71.228 31.888H64.7V33.888H71.228V31.888ZM65.7 32.888V31.556H63.7V32.888H65.7ZM64.7 35.136H71.228V33.136H64.7V35.136ZM70.228 34.136V35.468H72.228V34.136H70.228ZM71.228 34.468H64.7V36.468H71.228V34.468ZM65.7 35.468V34.136H63.7V35.468H65.7ZM63.716 27.372H72.44V25.372H63.716V27.372ZM71.44 26.372V36.044H73.44V26.372H71.44ZM72.44 35.044H70.904V37.044H72.44V35.044ZM71.904 36.044V27.752H69.904V36.044H71.904ZM70.904 26.752H65.18V28.752H70.904V26.752ZM64.18 27.752V36.068H66.18V27.752H64.18ZM65.18 35.068H63.716V37.068H65.18V35.068ZM64.716 36.068V26.372H62.716V36.068H64.716ZM67.0211 25.7947L68.7611 25.9747L68.9669 23.9853L67.2269 23.8053L67.0211 25.7947ZM67.9226 24.6428C67.6483 25.4085 67.3161 26.1638 67.0696 26.6568L68.8584 27.5512C69.1399 26.9882 69.5037 26.1595 69.8054 25.3172L67.9226 24.6428ZM68.1429 26.1201L66.8229 25.8801L66.4651 27.8479L67.7851 28.0879L68.1429 26.1201ZM67.5964 27.1688C67.8022 26.5258 68.0216 25.6276 68.1151 24.9334L66.1329 24.6666C66.0584 25.2204 65.8698 26.0022 65.6916 26.5592L67.5964 27.1688ZM74.696 32.576V31.576H73.696V32.576H74.696ZM80.3 32.576H81.3V31.576H80.3V32.576ZM80.3 33.596V34.596H81.3V33.596H80.3ZM74.696 33.596H73.696V34.596H74.696V33.596ZM74.42 26.864V25.864H73.42V26.864H74.42ZM80.42 26.864H81.42V25.864H80.42V26.864ZM80.42 27.908V28.908H81.42V27.908H80.42ZM74.42 27.908H73.42V28.908H74.42V27.908ZM76.808 26.012V25.012H75.808V26.012H76.808ZM78.104 26.012H79.104V25.012H78.104V26.012ZM78.104 34.616V35.616H79.104V34.616H78.104ZM76.808 34.616H75.808V35.616H76.808V34.616ZM74.36 34.484L74.2876 33.4866L73.2214 33.564L73.3697 34.6226L74.36 34.484ZM80.3 34.016L81.2999 34.005L81.2881 32.9242L80.2115 33.0199L80.3 34.016ZM80.312 35.108L80.4173 36.1024L81.3219 36.0067L81.3119 35.097L80.312 35.108ZM74.528 35.684L73.5377 35.8226L73.6699 36.7675L74.6199 36.6798L74.528 35.684ZM75.884 30.656V29.656H74.884V30.656H75.884ZM75.884 31.208H74.884V32.208H75.884V31.208ZM79.052 31.208V32.208H80.052V31.208H79.052ZM79.052 30.656H80.052V29.656H79.052V30.656ZM75.884 29.276V28.276H74.884V29.276H75.884ZM75.884 29.816H74.884V30.816H75.884V29.816ZM79.052 29.816V30.816H80.052V29.816H79.052ZM79.052 29.276H80.052V28.276H79.052V29.276ZM74.732 28.376V27.376H73.732V28.376H74.732ZM80.24 28.376H81.24V27.376H80.24V28.376ZM80.24 32.108V33.108H81.24V32.108H80.24ZM74.732 32.108H73.732V33.108H74.732V32.108ZM79.652 24.872L80.5137 24.3646L80.1463 23.7406L79.4388 23.895L79.652 24.872ZM80.288 25.952L80.4871 26.932L81.8612 26.6529L81.1497 25.4446L80.288 25.952ZM74.768 26.48L73.7816 26.6444L73.9237 27.4971L74.788 27.4798L74.768 26.48ZM74.456 25.46L74.4091 24.4611L72.9036 24.5318L73.5539 25.8915L74.456 25.46ZM80.42 27.524V26.524H79.42V27.524H80.42ZM84.572 27.524H85.572V26.524H84.572V27.524ZM84.572 28.844V29.844H85.572V28.844H84.572ZM80.42 28.844H79.42V29.844H80.42V28.844ZM83.996 27.524V26.524H82.996V27.524H83.996ZM85.376 27.524L86.3757 27.5496L86.402 26.524H85.376V27.524ZM85.364 28.16L86.3638 28.1818L86.364 28.1709V28.16H85.364ZM84.764 35.396L83.9576 34.8046L83.9403 34.8282L83.9244 34.8527L84.764 35.396ZM83.828 36.008L83.6491 35.0241L83.638 35.0262L83.828 36.008ZM82.328 36.056L81.3321 36.1465L81.4113 37.0179L82.2855 37.0551L82.328 36.056ZM81.908 34.688L82.0006 33.6923L80.0458 33.5105L81.0481 35.1985L81.908 34.688ZM83.528 34.532L82.7344 33.9236L82.7092 33.9564L82.6868 33.9912L83.528 34.532ZM83.996 27.836L84.9958 27.8567L84.996 27.8463V27.836H83.996ZM81.572 25.016V24.016H80.5745L80.572 25.0135L81.572 25.016ZM82.952 25.016L83.952 25.0183L83.9543 24.016H82.952V25.016ZM80.156 36.176L79.2933 36.6817L79.8736 37.6716L80.7749 36.9615L80.156 36.176ZM79.16 35.096L78.5534 34.301L77.496 35.1078L78.5648 35.8996L79.16 35.096ZM74.696 33.576H80.3V31.576H74.696V33.576ZM79.3 32.576V33.596H81.3V32.576H79.3ZM80.3 32.596H74.696V34.596H80.3V32.596ZM75.696 33.596V32.576H73.696V33.596H75.696ZM74.42 27.864H80.42V25.864H74.42V27.864ZM79.42 26.864V27.908H81.42V26.864H79.42ZM80.42 26.908H74.42V28.908H80.42V26.908ZM75.42 27.908V26.864H73.42V27.908H75.42ZM76.808 27.012H78.104V25.012H76.808V27.012ZM77.104 26.012V34.616H79.104V26.012H77.104ZM78.104 33.616H76.808V35.616H78.104V33.616ZM77.808 34.616V26.012H75.808V34.616H77.808ZM74.4324 35.4814C75.9202 35.3734 78.2196 35.2049 80.3885 35.0121L80.2115 33.0199C78.0604 33.2111 75.7758 33.3786 74.2876 33.4866L74.4324 35.4814ZM79.3001 34.027L79.3121 35.119L81.3119 35.097L81.2999 34.005L79.3001 34.027ZM80.2067 34.1136C78.1707 34.3291 75.9912 34.5447 74.4361 34.6882L74.6199 36.6798C76.1848 36.5353 78.3732 36.3189 80.4173 36.1024L80.2067 34.1136ZM75.5183 35.5454L75.3503 34.3454L73.3697 34.6226L73.5377 35.8226L75.5183 35.5454ZM74.884 30.656V31.208H76.884V30.656H74.884ZM75.884 32.208H79.052V30.208H75.884V32.208ZM80.052 31.208V30.656H78.052V31.208H80.052ZM79.052 29.656H75.884V31.656H79.052V29.656ZM74.884 29.276V29.816H76.884V29.276H74.884ZM75.884 30.816H79.052V28.816H75.884V30.816ZM80.052 29.816V29.276H78.052V29.816H80.052ZM79.052 28.276H75.884V30.276H79.052V28.276ZM74.732 29.376H80.24V27.376H74.732V29.376ZM79.24 28.376V32.108H81.24V28.376H79.24ZM80.24 31.108H74.732V33.108H80.24V31.108ZM75.732 32.108V28.376H73.732V32.108H75.732ZM78.7903 25.3794L79.4263 26.4594L81.1497 25.4446L80.5137 24.3646L78.7903 25.3794ZM80.0889 24.972C78.6338 25.2676 76.5152 25.4449 74.748 25.4802L74.788 27.4798C76.6208 27.4431 78.8702 27.2604 80.4871 26.932L80.0889 24.972ZM75.7544 26.3156C75.6941 25.9537 75.538 25.4047 75.3581 25.0285L73.5539 25.8915C73.638 26.0673 73.7459 26.4303 73.7816 26.6444L75.7544 26.3156ZM74.5029 26.4589C76.3154 26.3737 78.4665 26.1542 79.8652 25.849L79.4388 23.895C78.1975 24.1658 76.1726 24.3782 74.4091 24.4611L74.5029 26.4589ZM80.42 28.524H84.572V26.524H80.42V28.524ZM83.572 27.524V28.844H85.572V27.524H83.572ZM84.572 27.844H80.42V29.844H84.572V27.844ZM81.42 28.844V27.524H79.42V28.844H81.42ZM83.996 28.524H85.376V26.524H83.996V28.524ZM85.376 27.524C84.3763 27.4984 84.3763 27.4984 84.3763 27.4984C84.3763 27.4984 84.3763 27.4984 84.3763 27.4984C84.3763 27.4984 84.3763 27.4985 84.3763 27.4985C84.3763 27.4986 84.3763 27.4987 84.3763 27.4988C84.3763 27.499 84.3763 27.4994 84.3763 27.4999C84.3763 27.5008 84.3762 27.5022 84.3762 27.504C84.3761 27.5075 84.376 27.5128 84.3758 27.5194C84.3755 27.5328 84.375 27.552 84.3744 27.5756C84.3733 27.6226 84.3718 27.6872 84.3702 27.7573C84.3673 27.8927 84.364 28.0631 84.364 28.16H86.364C86.364 28.0889 86.3667 27.9413 86.3698 27.8007C86.3712 27.7328 86.3727 27.6699 86.3738 27.6239C86.3744 27.601 86.3749 27.5823 86.3752 27.5694C86.3753 27.563 86.3755 27.558 86.3755 27.5546C86.3756 27.5529 86.3756 27.5517 86.3756 27.5508C86.3757 27.5504 86.3757 27.5501 86.3757 27.5499C86.3757 27.5498 86.3757 27.5497 86.3757 27.5497C86.3757 27.5497 86.3757 27.5496 86.3757 27.5496C86.3757 27.5496 86.3757 27.5496 86.3757 27.5496C86.3757 27.5496 86.3757 27.5496 85.376 27.524ZM84.3642 28.1382C84.3101 30.6162 84.2595 32.2615 84.175 33.3523C84.1327 33.8984 84.0842 34.273 84.0308 34.5281C83.9737 34.8013 83.929 34.8436 83.9576 34.8046L85.5704 35.9874C85.797 35.6784 85.9128 35.2992 85.9885 34.9375C86.0679 34.5578 86.1243 34.0841 86.169 33.5067C86.2585 32.3505 86.3099 30.6478 86.3638 28.1818L84.3642 28.1382ZM83.9244 34.8527C83.8881 34.9089 83.8617 34.9395 83.8465 34.9551C83.8325 34.9694 83.8251 34.9741 83.8223 34.9758C83.8179 34.9785 83.7845 34.9995 83.6491 35.0241L84.0069 36.9919C84.2675 36.9445 84.5701 36.8635 84.8687 36.6802C85.1738 36.4929 85.4092 36.2397 85.6036 35.9393L83.9244 34.8527ZM83.638 35.0262C83.3952 35.0732 82.94 35.0811 82.3705 35.0569L82.2855 37.0551C82.844 37.0789 83.5168 37.0868 84.018 36.9898L83.638 35.0262ZM83.3239 35.9655C83.2779 35.4598 83.0896 34.7193 82.7679 34.1775L81.0481 35.1985C81.1824 35.4247 81.3061 35.8602 81.3321 36.1465L83.3239 35.9655ZM81.8154 35.6837C82.3811 35.7363 82.877 35.736 83.12 35.736V33.736C82.883 33.736 82.4669 33.7357 82.0006 33.6923L81.8154 35.6837ZM83.12 35.736C83.2636 35.736 83.5068 35.7247 83.7648 35.6074C84.0445 35.4802 84.2369 35.2786 84.3692 35.0728L82.6868 33.9912C82.7111 33.9534 82.7895 33.8538 82.9372 33.7866C83.0633 33.7293 83.1564 33.736 83.12 33.736V35.736ZM84.3216 35.1404C84.5545 34.8367 84.6401 34.4392 84.6891 34.1593C84.7476 33.825 84.7912 33.393 84.8272 32.8576C84.8995 31.7824 84.9478 30.1758 84.9958 27.8567L82.9962 27.8153C82.9482 30.1402 82.9005 31.7016 82.8318 32.7234C82.7973 33.2365 82.7592 33.5852 82.719 33.8146C82.6694 34.0983 82.6395 34.0473 82.7344 33.9236L84.3216 35.1404ZM84.996 27.836V27.524H82.996V27.836H84.996ZM81.572 26.016H82.952V24.016H81.572V26.016ZM81.952 25.0137C81.9459 27.6048 81.9367 29.7471 81.606 31.5146C81.2818 33.248 80.6688 34.4989 79.5371 35.3905L80.7749 36.9615C82.4152 35.6691 83.1942 33.902 83.572 31.8824C83.9433 29.8969 83.9461 27.5512 83.952 25.0183L81.952 25.0137ZM81.0187 35.6703C80.7346 35.1857 80.1669 34.5974 79.7552 34.2924L78.5648 35.8996C78.8011 36.0746 79.1694 36.4703 79.2933 36.6817L81.0187 35.6703ZM79.7666 35.891C81.3011 34.7202 81.9862 33.1261 82.2969 31.2943C82.5995 29.5105 82.5661 27.3655 82.572 25.0185L80.572 25.0135C80.5659 27.4545 80.5925 29.3835 80.3251 30.9597C80.0658 32.4879 79.5509 33.5398 78.5534 34.301L79.7666 35.891Z" fill="#0B9120" mask="url(#path-8-outside-2_519_3807)"/>
<defs>
<linearGradient id="paint0_linear_519_3807" x1="61.5" y1="0" x2="61.5" y2="39" gradientUnits="userSpaceOnUse">
<stop offset="0.165" stop-color="#46FF90"/>
<stop offset="1" stop-color="#009F19"/>
</linearGradient>
</defs>
</svg>
