<svg width="315" height="46" viewBox="0 0 315 46" fill="none" xmlns="http://www.w3.org/2000/svg">
<path d="M0.5 0.5H268.665C279.733 0.5 289.87 6.69544 294.918 16.5453L302.85 32.0233C305.454 37.1042 308.954 41.669 313.177 45.5H0.5V0.5Z" fill="url(#paint0_linear_519_4150)" stroke="url(#paint1_linear_519_4150)"/>
<mask id="mask0_519_4150" style="mask-type:alpha" maskUnits="userSpaceOnUse" x="0" y="0" width="315" height="46">
<path d="M0.5 0.5H268.665C279.733 0.5 289.87 6.69544 294.918 16.5453L302.85 32.0233C305.454 37.1042 308.954 41.669 313.177 45.5H0.5V0.5Z" fill="url(#paint2_linear_519_4150)" stroke="url(#paint3_linear_519_4150)"/>
</mask>
<g mask="url(#mask0_519_4150)">
<g filter="url(#filter0_f_519_4150)">
<ellipse cx="262" cy="2" rx="48" ry="3" fill="#97C0FF"/>
</g>
<path d="M196 1L267.665 1C278.92 1 289.229 7.30045 294.363 17.3173L302.295 32.7952C305.072 38.2131 308.878 43.038 313.5 47V47" stroke="url(#paint4_linear_519_4150)" stroke-width="3"/>
</g>
<defs>
<filter id="filter0_f_519_4150" x="194" y="-21" width="136" height="46" filterUnits="userSpaceOnUse" color-interpolation-filters="sRGB">
<feFlood flood-opacity="0" result="BackgroundImageFix"/>
<feBlend mode="normal" in="SourceGraphic" in2="BackgroundImageFix" result="shape"/>
<feGaussianBlur stdDeviation="10" result="effect1_foregroundBlur_519_4150"/>
</filter>
<linearGradient id="paint0_linear_519_4150" x1="187.5" y1="-9.01911e-08" x2="187.5" y2="46" gradientUnits="userSpaceOnUse">
<stop stop-color="#2281F2"/>
<stop offset="0.515" stop-color="#3818C9"/>
<stop offset="1" stop-color="#5118C9"/>
</linearGradient>
<linearGradient id="paint1_linear_519_4150" x1="157.25" y1="0" x2="157.25" y2="46" gradientUnits="userSpaceOnUse">
<stop stop-color="#5BBAFF"/>
<stop offset="1" stop-color="#155590"/>
</linearGradient>
<linearGradient id="paint2_linear_519_4150" x1="187.5" y1="-9.01911e-08" x2="187.5" y2="46" gradientUnits="userSpaceOnUse">
<stop stop-color="#2281F2"/>
<stop offset="0.515" stop-color="#3818C9"/>
<stop offset="1" stop-color="#5118C9"/>
</linearGradient>
<linearGradient id="paint3_linear_519_4150" x1="157.25" y1="0" x2="157.25" y2="46" gradientUnits="userSpaceOnUse">
<stop stop-color="#5BBAFF"/>
<stop offset="1" stop-color="#155590"/>
</linearGradient>
<linearGradient id="paint4_linear_519_4150" x1="314" y1="24" x2="196" y2="24" gradientUnits="userSpaceOnUse">
<stop offset="0.045" stop-color="#5BBAFF" stop-opacity="0"/>
<stop offset="0.33" stop-color="#9BD5FF"/>
<stop offset="0.755" stop-color="#5BBAFF" stop-opacity="0"/>
</linearGradient>
</defs>
</svg>
