<svg width="376" height="118" viewBox="0 0 376 118" fill="none" xmlns="http://www.w3.org/2000/svg">
<mask id="mask0_519_4100" style="mask-type:alpha" maskUnits="userSpaceOnUse" x="0" y="0" width="376" height="118">
<rect width="376" height="118" fill="#D9D9D9"/>
</mask>
<g mask="url(#mask0_519_4100)">
<g filter="url(#filter0_d_519_4100)">
<ellipse cx="183" cy="39.5" rx="236" ry="39.5" fill="url(#paint0_linear_519_4100)"/>
</g>
<mask id="mask1_519_4100" style="mask-type:alpha" maskUnits="userSpaceOnUse" x="-53" y="0" width="472" height="79">
<ellipse cx="183" cy="39.5" rx="236" ry="39.5" fill="url(#paint1_linear_519_4100)"/>
</mask>
<g mask="url(#mask1_519_4100)">
<g style="mix-blend-mode:color" filter="url(#filter1_d_519_4100)">
<ellipse cx="188" cy="78" rx="236" ry="60" fill="url(#paint2_linear_519_4100)"/>
</g>
<g filter="url(#filter2_f_519_4100)">
<path d="M418 39.5C418 41.792 416.614 44.1989 413.572 46.6866C410.543 49.1645 406.014 51.5996 400.086 53.9453C388.24 58.633 371.039 62.8749 349.712 66.4444C307.074 73.5809 248.132 78 183 78C117.868 78 58.926 73.5809 16.2879 66.4444C-5.0392 62.8749 -22.2399 58.633 -34.086 53.9453C-40.014 51.5996 -44.5427 49.1645 -47.5722 46.6866C-50.6136 44.1989 -52 41.792 -52 39.5C-52 37.208 -50.6136 34.8011 -47.5722 32.3134C-44.5427 29.8355 -40.014 27.4004 -34.086 25.0547C-22.2399 20.367 -5.0392 16.1251 16.2879 12.5556C58.926 5.4191 117.868 1 183 1C248.132 1 307.074 5.4191 349.712 12.5556C371.039 16.1251 388.24 20.367 400.086 25.0547C406.014 27.4004 410.543 29.8355 413.572 32.3134C416.614 34.8011 418 37.208 418 39.5Z" stroke="url(#paint3_linear_519_4100)" stroke-width="2"/>
</g>
<g filter="url(#filter3_f_519_4100)">
<ellipse cx="184" cy="-1" rx="48" ry="3" fill="#97C0FF"/>
</g>
</g>
<path fill-rule="evenodd" clip-rule="evenodd" d="M-13 5H34.4955C48.4687 5 61.429 12.2916 68.683 24.2343L77.3933 38.5743C82.8338 47.5313 92.554 53 103.034 53H161.5H214.5H272.966C283.446 53 293.166 47.5313 298.607 38.5743L307.317 24.2343C314.571 12.2916 327.531 5 341.504 5H389C405.569 5 419 18.4315 419 35V84C419 100.569 405.569 114 389 114H361C354.649 114 349.5 119.149 349.5 125.5C349.5 131.851 344.351 137 338 137H214.5H161.5H38C31.6487 137 26.5 131.851 26.5 125.5C26.5 119.149 21.3513 114 15 114H-13C-29.5685 114 -43 100.569 -43 84V35C-43 18.4315 -29.5685 5 -13 5Z" fill="url(#paint4_linear_519_4100)"/>
<g filter="url(#filter4_f_519_4100)">
<mask id="path-8-inside-1_519_4100" fill="white">
<path fill-rule="evenodd" clip-rule="evenodd" d="M-13 5H34.4955C48.4687 5 61.429 12.2916 68.683 24.2343L77.3933 38.5743C82.8338 47.5313 92.554 53 103.034 53H161.5H214.5H272.966C283.446 53 293.166 47.5313 298.607 38.5743L307.317 24.2343C314.571 12.2916 327.531 5 341.504 5H389C405.569 5 419 18.4315 419 35V94C419 110.569 405.569 124 389 124H356C352.41 124 349.5 126.91 349.5 130.5C349.5 134.09 346.59 137 343 137H214.5H161.5H33C29.4101 137 26.5 134.09 26.5 130.5C26.5 126.91 23.5899 124 20 124H-13C-29.5685 124 -43 110.569 -43 94V35C-43 18.4315 -29.5685 5 -13 5Z"/>
</mask>
<path fill-rule="evenodd" clip-rule="evenodd" d="M-13 5H34.4955C48.4687 5 61.429 12.2916 68.683 24.2343L77.3933 38.5743C82.8338 47.5313 92.554 53 103.034 53H161.5H214.5H272.966C283.446 53 293.166 47.5313 298.607 38.5743L307.317 24.2343C314.571 12.2916 327.531 5 341.504 5H389C405.569 5 419 18.4315 419 35V94C419 110.569 405.569 124 389 124H356C352.41 124 349.5 126.91 349.5 130.5C349.5 134.09 346.59 137 343 137H214.5H161.5H33C29.4101 137 26.5 134.09 26.5 130.5C26.5 126.91 23.5899 124 20 124H-13C-29.5685 124 -43 110.569 -43 94V35C-43 18.4315 -29.5685 5 -13 5Z" fill="url(#paint5_linear_519_4100)"/>
<path d="M68.683 24.2343L71.2471 22.6768L68.683 24.2343ZM77.3933 38.5743L74.8292 40.1317L77.3933 38.5743ZM298.607 38.5743L301.171 40.1317L298.607 38.5743ZM307.317 24.2343L304.753 22.6768V22.6768L307.317 24.2343ZM34.4955 2H-13V8H34.4955V2ZM71.2471 22.6768C63.449 9.83848 49.5167 2 34.4955 2V8C47.4207 8 59.409 14.7447 66.119 25.7917L71.2471 22.6768ZM79.9573 37.0169L71.2471 22.6768L66.119 25.7917L74.8292 40.1317L79.9573 37.0169ZM103.034 50C93.602 50 84.8538 45.0782 79.9573 37.0169L74.8292 40.1317C80.8138 49.9844 91.5061 56 103.034 56V50ZM161.5 50H103.034V56H161.5V50ZM161.5 56H214.5V50H161.5V56ZM214.5 56H272.966V50H214.5V56ZM272.966 56C284.494 56 295.186 49.9844 301.171 40.1317L296.043 37.0169C291.146 45.0782 282.398 50 272.966 50V56ZM301.171 40.1317L309.881 25.7917L304.753 22.6768L296.043 37.0169L301.171 40.1317ZM309.881 25.7917C316.591 14.7447 328.579 8 341.504 8V2C326.483 2 312.551 9.83848 304.753 22.6768L309.881 25.7917ZM341.504 8H389V2H341.504V8ZM389 8C403.912 8 416 20.0883 416 35H422C422 16.7746 407.225 2 389 2V8ZM416 35V94H422V35H416ZM416 94C416 108.912 403.912 121 389 121V127C407.225 127 422 112.225 422 94H416ZM389 121H356V127H389V121ZM356 121C350.753 121 346.5 125.253 346.5 130.5H352.5C352.5 128.567 354.067 127 356 127V121ZM346.5 130.5C346.5 132.433 344.933 134 343 134V140C348.247 140 352.5 135.747 352.5 130.5H346.5ZM343 134H214.5V140H343V134ZM214.5 134H161.5V140H214.5V134ZM33 140H161.5V134H33V140ZM23.5 130.5C23.5 135.747 27.7533 140 33 140V134C31.067 134 29.5 132.433 29.5 130.5H23.5ZM20 127C21.933 127 23.5 128.567 23.5 130.5H29.5C29.5 125.253 25.2467 121 20 121V127ZM-13 127H20V121H-13V127ZM-46 94C-46 112.225 -31.2254 127 -13 127V121C-27.9117 121 -40 108.912 -40 94H-46ZM-46 35V94H-40V35H-46ZM-13 2C-31.2254 2 -46 16.7746 -46 35H-40C-40 20.0883 -27.9117 8 -13 8V2Z" fill="#FF8DFA" mask="url(#path-8-inside-1_519_4100)"/>
</g>
</g>
<defs>
<filter id="filter0_d_519_4100" x="-57" y="0" width="480" height="87" filterUnits="userSpaceOnUse" color-interpolation-filters="sRGB">
<feFlood flood-opacity="0" result="BackgroundImageFix"/>
<feColorMatrix in="SourceAlpha" type="matrix" values="0 0 0 0 0 0 0 0 0 0 0 0 0 0 0 0 0 0 127 0" result="hardAlpha"/>
<feOffset dy="4"/>
<feGaussianBlur stdDeviation="2"/>
<feComposite in2="hardAlpha" operator="out"/>
<feColorMatrix type="matrix" values="0 0 0 0 0 0 0 0 0 0 0 0 0 0 0 0 0 0 0.25 0"/>
<feBlend mode="normal" in2="BackgroundImageFix" result="effect1_dropShadow_519_4100"/>
<feBlend mode="normal" in="SourceGraphic" in2="effect1_dropShadow_519_4100" result="shape"/>
</filter>
<filter id="filter1_d_519_4100" x="-52" y="18" width="480" height="128" filterUnits="userSpaceOnUse" color-interpolation-filters="sRGB">
<feFlood flood-opacity="0" result="BackgroundImageFix"/>
<feColorMatrix in="SourceAlpha" type="matrix" values="0 0 0 0 0 0 0 0 0 0 0 0 0 0 0 0 0 0 127 0" result="hardAlpha"/>
<feOffset dy="4"/>
<feGaussianBlur stdDeviation="2"/>
<feComposite in2="hardAlpha" operator="out"/>
<feColorMatrix type="matrix" values="0 0 0 0 0 0 0 0 0 0 0 0 0 0 0 0 0 0 0.25 0"/>
<feBlend mode="normal" in2="BackgroundImageFix" result="effect1_dropShadow_519_4100"/>
<feBlend mode="normal" in="SourceGraphic" in2="effect1_dropShadow_519_4100" result="shape"/>
</filter>
<filter id="filter2_f_519_4100" x="-55" y="-2" width="476" height="83" filterUnits="userSpaceOnUse" color-interpolation-filters="sRGB">
<feFlood flood-opacity="0" result="BackgroundImageFix"/>
<feBlend mode="normal" in="SourceGraphic" in2="BackgroundImageFix" result="shape"/>
<feGaussianBlur stdDeviation="1" result="effect1_foregroundBlur_519_4100"/>
</filter>
<filter id="filter3_f_519_4100" x="116" y="-24" width="136" height="46" filterUnits="userSpaceOnUse" color-interpolation-filters="sRGB">
<feFlood flood-opacity="0" result="BackgroundImageFix"/>
<feBlend mode="normal" in="SourceGraphic" in2="BackgroundImageFix" result="shape"/>
<feGaussianBlur stdDeviation="10" result="effect1_foregroundBlur_519_4100"/>
</filter>
<filter id="filter4_f_519_4100" x="-46" y="2" width="468" height="138" filterUnits="userSpaceOnUse" color-interpolation-filters="sRGB">
<feFlood flood-opacity="0" result="BackgroundImageFix"/>
<feBlend mode="normal" in="SourceGraphic" in2="BackgroundImageFix" result="shape"/>
<feGaussianBlur stdDeviation="1.5" result="effect1_foregroundBlur_519_4100"/>
</filter>
<linearGradient id="paint0_linear_519_4100" x1="183" y1="0" x2="183" y2="79" gradientUnits="userSpaceOnUse">
<stop stop-color="#2F5FDB"/>
<stop offset="0.16" stop-color="#3519BF"/>
<stop offset="1" stop-color="#339DFF"/>
</linearGradient>
<linearGradient id="paint1_linear_519_4100" x1="183" y1="0" x2="183" y2="79" gradientUnits="userSpaceOnUse">
<stop stop-color="#2F5FDB"/>
<stop offset="0.16" stop-color="#3519BF"/>
<stop offset="1" stop-color="#339DFF"/>
</linearGradient>
<linearGradient id="paint2_linear_519_4100" x1="188" y1="18" x2="188" y2="62" gradientUnits="userSpaceOnUse">
<stop stop-color="#37178F"/>
<stop offset="1" stop-color="#0085FF"/>
</linearGradient>
<linearGradient id="paint3_linear_519_4100" x1="-53" y1="39.5" x2="419" y2="39.5" gradientUnits="userSpaceOnUse">
<stop offset="0.195" stop-color="#4F98CC" stop-opacity="0"/>
<stop offset="0.41" stop-color="#76D2FF"/>
<stop offset="0.505" stop-color="#8CEAFF"/>
<stop offset="0.583618" stop-color="#74C4DE"/>
<stop offset="0.815" stop-color="#3B7299" stop-opacity="0"/>
</linearGradient>
<linearGradient id="paint4_linear_519_4100" x1="274.521" y1="-5.73449" x2="274.521" y2="137" gradientUnits="userSpaceOnUse">
<stop offset="0.135" stop-color="#CE1DF9"/>
<stop offset="0.555" stop-color="#6206AA"/>
<stop offset="0.74" stop-color="#4406AA"/>
</linearGradient>
<linearGradient id="paint5_linear_519_4100" x1="274.521" y1="-5.73449" x2="274.521" y2="137" gradientUnits="userSpaceOnUse">
<stop offset="0.135" stop-color="#CE1DF9"/>
<stop offset="0.555" stop-color="#6206AA"/>
<stop offset="0.74" stop-color="#4406AA"/>
</linearGradient>
</defs>
</svg>
