<svg width="40" height="25" viewBox="0 0 40 25" fill="none" xmlns="http://www.w3.org/2000/svg">
<path d="M5.30333 14.2314C5.62883 13.8548 5.91808 13.5249 6.20154 13.1934C8.0875 10.989 9.97057 8.78384 11.8567 6.58066C12.1591 6.22694 12.278 5.8542 12.0939 5.44488C11.7598 4.69639 10.5663 4.5704 9.99901 5.23108C7.54406 8.09396 5.09509 10.9596 2.64919 13.8272C2.19156 14.3638 2.29645 14.9812 2.88908 15.3606C6.02049 17.3712 9.15073 19.3831 12.2835 21.3934C12.9836 21.8418 13.8085 21.6742 14.205 21.0059C14.4524 20.59 14.3725 20.1047 13.9996 19.7911C13.9125 19.7191 13.8156 19.6558 13.7186 19.5925C10.9925 17.8411 8.26496 16.0899 5.53745 14.3387C5.47602 14.2993 5.40308 14.2761 5.30452 14.23L5.30333 14.2314Z" fill="#FAF7FF"/>
<path fill-rule="evenodd" clip-rule="evenodd" d="M6.00495 14.6823C5.83416 14.5736 5.66337 14.4649 5.49258 14.3561L5.48203 14.3494C5.44201 14.324 5.39721 14.3052 5.3439 14.2828C5.31348 14.2701 5.28028 14.2562 5.24362 14.2392C5.36663 14.0981 5.48459 13.9633 5.59907 13.8326C5.68058 13.7395 5.76032 13.6484 5.83887 13.5585C5.9489 13.4325 6.05658 13.3087 6.16345 13.1847C6.99226 12.2237 7.82053 11.2625 8.64873 10.3014C9.75306 9.01991 10.8573 7.73852 11.9625 6.4578C12.2726 6.09797 12.3948 5.71903 12.2068 5.30327C11.8655 4.54301 10.6434 4.41637 10.0617 5.08846C7.54429 8.00078 5.033 10.9159 2.52485 13.833C2.05558 14.3789 2.16226 15.0062 2.76871 15.3911C4.05007 16.2066 5.33123 17.0224 6.61244 17.8382C8.53529 19.0626 10.4583 20.287 12.3822 21.5109C13.0986 21.9658 13.9435 21.7945 14.3504 21.1149C14.6042 20.6919 14.523 20.1988 14.1414 19.8806C14.0523 19.8075 13.9531 19.7433 13.854 19.679L13.8539 19.679C11.2385 18.0133 8.62174 16.3478 6.00495 14.6823ZM15.094 21.5577C15.5656 20.7718 15.4074 19.8097 14.698 19.2179L14.6926 19.2134L14.6926 19.2135C14.5651 19.1089 14.4304 19.0217 14.3388 18.9625C14.3346 18.9598 14.3305 18.9571 14.3266 18.9546L14.3211 18.951L14.3211 18.951C11.7418 17.3084 9.16137 15.6659 6.58093 14.0236C6.66177 13.9308 6.74151 13.8389 6.8204 13.7473M15.094 21.5577C14.4083 22.702 12.9964 22.9255 11.916 22.2395L11.9154 22.2391C9.99192 21.0155 8.06908 19.7912 6.14654 18.567C4.86506 17.751 3.58372 16.9351 2.3024 16.1196C1.83981 15.8259 1.4789 15.3785 1.38765 14.8096C1.29571 14.2365 1.50246 13.6955 1.86701 13.2714L1.86706 13.2713C4.37556 10.3538 6.88736 7.4381 9.40538 4.52506L9.40574 4.52465C9.91475 3.93654 10.6651 3.73373 11.3129 3.79943C11.956 3.86464 12.6684 4.21717 12.9974 4.94875C13.1664 5.32315 13.2064 5.71624 13.1145 6.10085C13.0266 6.46835 12.8318 6.77412 12.6196 7.02025L12.6193 7.02066C11.5141 8.30133 10.4105 9.582 9.30655 10.8631C8.47836 11.8241 7.64997 12.7854 6.82057 13.7471" fill="white"/>
<path d="M17.175 12.4818C17.5005 12.1053 17.7898 11.7754 18.0732 11.4438C19.9592 9.23946 21.8423 7.03431 23.7284 4.83113C24.0308 4.47741 24.1497 4.10467 23.9656 3.69534C23.6315 2.94686 22.438 2.82087 21.8707 3.48155C19.4158 6.34442 16.9668 9.21006 14.5209 12.0777C14.0633 12.6143 14.1682 13.2317 14.7608 13.6111C17.8922 15.6216 21.0224 17.6335 24.1552 19.6438C24.8553 20.0923 25.6802 19.9247 26.0767 19.2564C26.3241 18.8405 26.2442 18.3552 25.8713 18.0416C25.7842 17.9696 25.6873 17.9063 25.5903 17.8429C22.8642 16.0916 20.1367 14.3404 17.4092 12.5892C17.3477 12.5497 17.2748 12.5265 17.1762 12.4804L17.175 12.4818Z" fill="#FAF7FF"/>
<path fill-rule="evenodd" clip-rule="evenodd" d="M17.8767 12.9327C17.7059 12.824 17.5351 12.7153 17.3643 12.6066L17.3537 12.5999C17.3137 12.5744 17.2689 12.5556 17.2156 12.5333C17.1852 12.5206 17.152 12.5067 17.1153 12.4897C17.2383 12.3485 17.3563 12.2138 17.4708 12.0831C17.5523 11.99 17.632 11.8989 17.7106 11.8089C17.8206 11.6829 17.9283 11.5591 18.0352 11.4351C18.864 10.4741 19.6922 9.51297 20.5204 8.55188C21.6248 7.27037 22.729 5.98899 23.8342 4.70826C24.1443 4.34844 24.2665 3.9695 24.0785 3.55373C23.7372 2.79347 22.5151 2.66683 21.9334 3.33893C19.416 6.25124 16.9047 9.16635 14.3966 12.0835C13.9273 12.6294 14.034 13.2567 14.6404 13.6416C15.9218 14.4571 17.2029 15.2729 18.4841 16.0887C20.407 17.3131 22.33 18.5375 24.2539 19.7613C24.9703 20.2163 25.8152 20.0449 26.2221 19.3654C26.4759 18.9424 26.3947 18.4493 26.0131 18.131C25.924 18.0579 25.8248 17.9937 25.7257 17.9295L25.7256 17.9295C23.1102 16.2638 20.4934 14.5982 17.8767 12.9327ZM26.9657 19.8082C27.4373 19.0223 27.2791 18.0601 26.5697 17.4684L26.5643 17.4639L26.5643 17.4639C26.4368 17.3594 26.3021 17.2722 26.2105 17.2129C26.2063 17.2102 26.2022 17.2076 26.1983 17.205L26.1928 17.2015L26.1928 17.2015C23.6135 15.5589 21.0331 13.9164 18.4526 12.274C18.5335 12.1812 18.6132 12.0893 18.6921 11.9978M26.9657 19.8082C26.28 20.9525 24.8681 21.176 23.7877 20.49L23.7871 20.4896C21.8636 19.266 19.9408 18.0416 18.0182 16.8174C16.7368 16.0015 15.4554 15.1856 14.1741 14.3701C13.7115 14.0764 13.3506 13.629 13.2594 13.0601C13.1674 12.4869 13.3742 11.9459 13.7387 11.5219L13.7388 11.5218C16.2473 8.60428 18.7591 5.68857 21.2771 2.77553L21.2774 2.77511C21.7865 2.18701 22.5368 1.9842 23.1846 2.04989C23.8277 2.11511 24.5401 2.46764 24.8691 3.19921C25.0381 3.57361 25.0781 3.96671 24.9862 4.35131C24.8983 4.71882 24.7035 5.02458 24.4913 5.27072L24.491 5.27113C23.3858 6.5518 22.2822 7.83246 21.1782 9.11353C20.3501 10.0746 19.5217 11.0359 18.6923 11.9976" fill="white"/>
<path fill-rule="evenodd" clip-rule="evenodd" d="M17.8767 12.9327C17.7059 12.824 17.5351 12.7153 17.3643 12.6066L17.3537 12.5999C17.3137 12.5744 17.2689 12.5556 17.2156 12.5333C17.1852 12.5206 17.152 12.5067 17.1153 12.4897C17.2383 12.3485 17.3563 12.2138 17.4708 12.0831C17.5523 11.99 17.632 11.8989 17.7106 11.8089C17.8206 11.6829 17.9283 11.5591 18.0352 11.4351C18.864 10.4741 19.6922 9.51297 20.5204 8.55188C21.6248 7.27037 22.729 5.98899 23.8342 4.70826C24.1443 4.34844 24.2665 3.9695 24.0785 3.55373C23.7372 2.79347 22.5151 2.66683 21.9334 3.33893C19.416 6.25124 16.9047 9.16635 14.3966 12.0835C13.9273 12.6294 14.034 13.2567 14.6404 13.6416C15.9218 14.4571 17.2029 15.2729 18.4841 16.0887C20.407 17.3131 22.33 18.5375 24.2539 19.7613C24.9703 20.2163 25.8152 20.0449 26.2221 19.3654C26.4759 18.9424 26.3947 18.4493 26.0131 18.131C25.924 18.0579 25.8248 17.9937 25.7257 17.9295L25.7256 17.9295C23.1102 16.2638 20.4934 14.5982 17.8767 12.9327ZM26.9657 19.8082C27.4373 19.0223 27.2791 18.0601 26.5697 17.4684L26.5643 17.4639L26.5643 17.4639C26.4368 17.3594 26.3021 17.2722 26.2105 17.2129C26.2063 17.2102 26.2022 17.2076 26.1983 17.205L26.1928 17.2015L26.1928 17.2015C23.6135 15.5589 21.0331 13.9164 18.4526 12.274C18.5335 12.1812 18.6132 12.0893 18.6921 11.9978M26.9657 19.8082C26.28 20.9525 24.8681 21.176 23.7877 20.49L23.7871 20.4896C21.8636 19.266 19.9408 18.0416 18.0182 16.8174C16.7368 16.0015 15.4554 15.1856 14.1741 14.3701C13.7115 14.0764 13.3506 13.629 13.2594 13.0601C13.1674 12.4869 13.3742 11.9459 13.7387 11.5219L13.7388 11.5218C16.2473 8.60428 18.7591 5.68857 21.2771 2.77553L21.2774 2.77511C21.7865 2.18701 22.5368 1.9842 23.1846 2.04989C23.8277 2.11511 24.5401 2.46764 24.8691 3.19921C25.0381 3.57361 25.0781 3.96671 24.9862 4.35131C24.8983 4.71882 24.7035 5.02458 24.4913 5.27072L24.491 5.27113C23.3858 6.5518 22.2822 7.83246 21.1782 9.11353C20.3501 10.0746 19.5217 11.0359 18.6923 11.9976" fill="white"/>
<path d="M29.0469 10.7323C29.3724 10.3558 29.6616 10.0258 29.9451 9.69429C31.831 7.48992 33.7141 5.28476 35.6002 3.08158C35.9027 2.72786 36.0215 2.35512 35.8375 1.9458C35.5033 1.19732 34.3098 1.07133 33.7425 1.73201C31.2876 4.59488 28.8386 7.46051 26.3927 10.3281C25.9351 10.8647 26.04 11.4821 26.6326 11.8616C29.764 13.8721 32.8943 15.884 36.027 17.8943C36.7272 18.3427 37.552 18.1751 37.9485 17.5069C38.1959 17.0909 38.1161 16.6056 37.7431 16.2921C37.656 16.22 37.5591 16.1567 37.4622 16.0934C34.736 14.342 32.0085 12.5908 29.281 10.8396C29.2196 10.8002 29.1466 10.777 29.048 10.7309L29.0469 10.7323Z" fill="#FAF7FF"/>
<path fill-rule="evenodd" clip-rule="evenodd" d="M29.7485 11.1832C29.5777 11.0745 29.4069 10.9658 29.2361 10.8571L29.2256 10.8504C29.1855 10.8249 29.1407 10.8061 29.0874 10.7838C29.057 10.771 29.0238 10.7571 28.9872 10.7401C29.1102 10.599 29.2281 10.4643 29.3426 10.3335C29.4241 10.2404 29.5039 10.1493 29.5824 10.0594C29.6924 9.93339 29.8001 9.80961 29.907 9.6856C30.7358 8.72459 31.5641 7.76343 32.3923 6.80234C33.4966 5.52083 34.6008 4.23945 35.706 2.95872C36.0162 2.59889 36.1383 2.21995 35.9503 1.80419C35.609 1.04393 34.3869 0.917292 33.8052 1.58938C31.2878 4.5017 28.7765 7.41681 26.2684 10.3339C25.7991 10.8798 25.9058 11.5071 26.5122 11.892C27.7936 12.7076 29.0748 13.5233 30.356 14.3391C32.2788 15.5635 34.2018 16.7879 36.1257 18.0118C36.8421 18.4667 37.6871 18.2954 38.0939 17.6158C38.3477 17.1928 38.2665 16.6997 37.8849 16.3815C37.7959 16.3084 37.6967 16.2442 37.5975 16.18L37.5975 16.1799C34.982 14.5142 32.3653 12.8487 29.7485 11.1832ZM38.8375 18.0586C39.3091 17.2727 39.151 16.3106 38.4415 15.7189L38.4361 15.7144L38.4361 15.7144C38.3086 15.6098 38.1739 15.5227 38.0823 15.4634C38.0781 15.4607 38.0741 15.4581 38.0701 15.4555L38.0646 15.4519L38.0646 15.452C35.4853 13.8093 32.9049 12.1669 30.3245 10.5245C30.4053 10.4317 30.485 10.3398 30.5639 10.2483M38.8375 18.0586C38.1519 19.203 36.74 19.4264 35.6596 18.7404L35.6589 18.74C33.7354 17.5164 31.8126 16.2921 29.8901 15.0679C28.6086 14.2519 27.3272 13.436 26.0459 12.6205C25.5833 12.3268 25.2224 11.8794 25.1312 11.3105C25.0392 10.7374 25.246 10.1964 25.6105 9.77231L25.6106 9.77226C28.1191 6.85473 30.6309 3.93903 33.1489 1.02599L33.1493 1.02557C33.6583 0.437468 34.4086 0.234654 35.0565 0.300351C35.6996 0.365563 36.4119 0.718096 36.7409 1.44967C36.91 1.82407 36.9499 2.21717 36.858 2.60177C36.7702 2.96927 36.5753 3.27504 36.3632 3.52118L36.3628 3.52158C35.2576 4.80226 34.154 6.08292 33.0501 7.36399C32.2219 8.32506 31.3935 9.28636 30.5641 10.2481" fill="white"/>
<path fill-rule="evenodd" clip-rule="evenodd" d="M29.7485 11.1832C29.5777 11.0745 29.4069 10.9658 29.2361 10.8571L29.2256 10.8504C29.1855 10.8249 29.1407 10.8061 29.0874 10.7838C29.057 10.771 29.0238 10.7571 28.9872 10.7401C29.1102 10.599 29.2281 10.4643 29.3426 10.3335C29.4241 10.2404 29.5039 10.1493 29.5824 10.0594C29.6924 9.93339 29.8001 9.80961 29.907 9.6856C30.7358 8.72459 31.5641 7.76343 32.3923 6.80234C33.4966 5.52083 34.6008 4.23945 35.706 2.95872C36.0162 2.59889 36.1383 2.21995 35.9503 1.80419C35.609 1.04393 34.3869 0.917292 33.8052 1.58938C31.2878 4.5017 28.7765 7.41681 26.2684 10.3339C25.7991 10.8798 25.9058 11.5071 26.5122 11.892C27.7936 12.7076 29.0748 13.5233 30.356 14.3391C32.2788 15.5635 34.2018 16.7879 36.1257 18.0118C36.8421 18.4667 37.6871 18.2954 38.0939 17.6158C38.3477 17.1928 38.2665 16.6997 37.8849 16.3815C37.7959 16.3084 37.6967 16.2442 37.5975 16.18L37.5975 16.1799C34.982 14.5142 32.3653 12.8487 29.7485 11.1832ZM38.8375 18.0586C39.3091 17.2727 39.151 16.3106 38.4415 15.7189L38.4361 15.7144L38.4361 15.7144C38.3086 15.6098 38.1739 15.5227 38.0823 15.4634C38.0781 15.4607 38.0741 15.4581 38.0701 15.4555L38.0646 15.4519L38.0646 15.452C35.4853 13.8093 32.9049 12.1669 30.3245 10.5245C30.4053 10.4317 30.485 10.3398 30.5639 10.2483M38.8375 18.0586C38.1519 19.203 36.74 19.4264 35.6596 18.7404L35.6589 18.74C33.7354 17.5164 31.8126 16.2921 29.8901 15.0679C28.6086 14.2519 27.3272 13.436 26.0459 12.6205C25.5833 12.3268 25.2224 11.8794 25.1312 11.3105C25.0392 10.7374 25.246 10.1964 25.6105 9.77231L25.6106 9.77226C28.1191 6.85473 30.6309 3.93903 33.1489 1.02599L33.1493 1.02557C33.6583 0.437468 34.4086 0.234654 35.0565 0.300351C35.6996 0.365563 36.4119 0.718096 36.7409 1.44967C36.91 1.82407 36.9499 2.21717 36.858 2.60177C36.7702 2.96927 36.5753 3.27504 36.3632 3.52118L36.3628 3.52158C35.2576 4.80226 34.154 6.08292 33.0501 7.36399C32.2219 8.32506 31.3935 9.28636 30.5641 10.2481" fill="white"/>
</svg>
