<svg width="40" height="25" viewBox="0 0 40 25" fill="none" xmlns="http://www.w3.org/2000/svg">
<path d="M34.0714 14.2314C33.7459 13.8548 33.4567 13.5249 33.1732 13.1934C31.2873 10.989 29.4042 8.78384 27.5181 6.58066C27.2156 6.22694 27.0967 5.8542 27.2808 5.44488C27.615 4.69639 28.8085 4.5704 29.3758 5.23108C31.8307 8.09396 34.2797 10.9596 36.7256 13.8272C37.1832 14.3638 37.0783 14.9812 36.4857 15.3606C33.3543 17.3712 30.224 19.3831 27.0913 21.3934C26.3911 21.8418 25.5663 21.6742 25.1697 21.0059C24.9224 20.59 25.0022 20.1047 25.3752 19.7911C25.4623 19.7191 25.5592 19.6558 25.6561 19.5925C28.3823 17.8411 31.1098 16.0899 33.8373 14.3387C33.8987 14.2993 33.9717 14.2761 34.0702 14.23L34.0714 14.2314Z" fill="#FAF7FF"/>
<path fill-rule="evenodd" clip-rule="evenodd" d="M33.3698 14.6823C33.5406 14.5736 33.7114 14.4649 33.8822 14.3561L33.8927 14.3494C33.9327 14.324 33.9775 14.3052 34.0309 14.2828C34.0613 14.2701 34.0945 14.2562 34.1311 14.2392C34.0081 14.0981 33.8902 13.9633 33.7757 13.8326C33.6942 13.7395 33.6144 13.6484 33.5359 13.5585C33.4259 13.4325 33.3182 13.3087 33.2113 13.1847C32.3825 12.2237 31.5542 11.2625 30.726 10.3014C29.6217 9.01991 28.5175 7.73852 27.4123 6.4578C27.1021 6.09797 26.9799 5.71903 27.168 5.30327C27.5093 4.54301 28.7314 4.41637 29.3131 5.08846C31.8305 8.00078 34.3418 10.9159 36.8499 13.833C37.3192 14.3789 37.2125 15.0062 36.606 15.3911C35.3247 16.2066 34.0435 17.0224 32.7623 17.8382C30.8395 19.0626 28.9165 20.287 26.9926 21.5109C26.2761 21.9658 25.4312 21.7945 25.0244 21.1149C24.7706 20.6919 24.8518 20.1988 25.2333 19.8806C25.3224 19.8075 25.4216 19.7433 25.5208 19.679L25.5208 19.679C28.1363 18.0133 30.753 16.3478 33.3698 14.6823ZM24.2808 21.5577C23.8091 20.7718 23.9673 19.8097 24.6768 19.2179L24.6822 19.2134L24.6822 19.2135C24.8097 19.1089 24.9444 19.0217 25.036 18.9625C25.0401 18.9598 25.0442 18.9571 25.0482 18.9546L25.0537 18.951L25.0537 18.951C27.6329 17.3084 30.2134 15.6659 32.7938 14.0236C32.713 13.9308 32.6332 13.8389 32.5544 13.7473M24.2808 21.5577C24.9664 22.702 26.3783 22.9255 27.4587 22.2395L27.4594 22.2391C29.3828 21.0155 31.3057 19.7912 33.2282 18.567C34.5097 17.751 35.791 16.9351 37.0724 16.1196C37.5349 15.8259 37.8959 15.3785 37.9871 14.8096C38.079 14.2365 37.8723 13.6955 37.5077 13.2714L37.5077 13.2713C34.9992 10.3538 32.4874 7.4381 29.9694 4.52506L29.969 4.52465C29.46 3.93654 28.7097 3.73373 28.0618 3.79943C27.4187 3.86464 26.7064 4.21717 26.3774 4.94875C26.2083 5.32315 26.1684 5.71624 26.2603 6.10085C26.3481 6.46835 26.543 6.77412 26.7551 7.02025L26.7555 7.02066C27.8607 8.30133 28.9643 9.582 30.0682 10.8631C30.8964 11.8241 31.7248 12.7854 32.5542 13.7471" fill="white"/>
<path d="M22.1997 12.4818C21.8742 12.1053 21.585 11.7754 21.3015 11.4438C19.4155 9.23946 17.5325 7.03431 15.6464 4.83113C15.3439 4.47741 15.225 4.10467 15.4091 3.69534C15.7433 2.94686 16.9368 2.82087 17.504 3.48155C19.959 6.34442 22.408 9.21006 24.8539 12.0777C25.3115 12.6143 25.2066 13.2317 24.614 13.6111C21.4826 15.6216 18.3523 17.6335 15.2195 19.6438C14.5194 20.0923 13.6946 19.9247 13.298 19.2564C13.0506 18.8405 13.1305 18.3552 13.5035 18.0416C13.5906 17.9696 13.6875 17.9063 13.7844 17.8429C16.5106 16.0916 19.2381 14.3404 21.9656 12.5892C22.027 12.5497 22.1 12.5265 22.1985 12.4804L22.1997 12.4818Z" fill="#FAF7FF"/>
<path fill-rule="evenodd" clip-rule="evenodd" d="M21.4981 12.9327C21.6689 12.824 21.8397 12.7153 22.0105 12.6066L22.021 12.5999C22.061 12.5744 22.1058 12.5556 22.1591 12.5333C22.1896 12.5206 22.2228 12.5067 22.2594 12.4897C22.1364 12.3485 22.0185 12.2138 21.904 12.0831C21.8225 11.99 21.7427 11.8989 21.6642 11.8089C21.5542 11.6829 21.4465 11.5591 21.3396 11.4351C20.5108 10.4741 19.6825 9.51297 18.8543 8.55188C17.75 7.27037 16.6458 5.98899 15.5405 4.70826C15.2304 4.34844 15.1082 3.9695 15.2963 3.55373C15.6376 2.79347 16.8597 2.66683 17.4414 3.33893C19.9588 6.25124 22.4701 9.16635 24.9782 12.0835C25.4475 12.6294 25.3408 13.2567 24.7343 13.6416C23.453 14.4571 22.1718 15.2729 20.8906 16.0887C18.9678 17.3131 17.0448 18.5375 15.1209 19.7613C14.4044 20.2163 13.5595 20.0449 13.1527 19.3654C12.8988 18.9424 12.9801 18.4493 13.3616 18.131C13.4507 18.0579 13.5499 17.9937 13.6491 17.9295L13.6491 17.9295C16.2646 16.2638 18.8813 14.5982 21.4981 12.9327ZM12.4091 19.8082C11.9374 19.0223 12.0956 18.0601 12.8051 17.4684L12.8105 17.4639L12.8105 17.4639C12.938 17.3594 13.0727 17.2722 13.1643 17.2129C13.1684 17.2102 13.1725 17.2076 13.1765 17.205L13.182 17.2015L13.182 17.2015C15.7612 15.5589 18.3417 13.9164 20.9221 12.274C20.8413 12.1812 20.7615 12.0893 20.6827 11.9978M12.4091 19.8082C13.0947 20.9525 14.5066 21.176 15.587 20.49L15.5876 20.4896C17.5111 19.266 19.434 18.0416 21.3565 16.8174C22.638 16.0015 23.9193 15.1856 25.2007 14.3701C25.6632 14.0764 26.0242 13.629 26.1154 13.0601C26.2073 12.4869 26.0006 11.9459 25.636 11.5219L25.636 11.5218C23.1275 8.60428 20.6157 5.68857 18.0977 2.77553L18.0973 2.77511C17.5883 2.18701 16.838 1.9842 16.1901 2.04989C15.547 2.11511 14.8347 2.46764 14.5057 3.19921C14.3366 3.57361 14.2967 3.96671 14.3886 4.35131C14.4764 4.71882 14.6713 5.02458 14.8834 5.27072L14.8838 5.27113C15.989 6.5518 17.0926 7.83246 18.1965 9.11353C19.0247 10.0746 19.8531 11.0359 20.6825 11.9976" fill="white"/>
<path fill-rule="evenodd" clip-rule="evenodd" d="M21.4981 12.9327C21.6689 12.824 21.8397 12.7153 22.0105 12.6066L22.021 12.5999C22.061 12.5744 22.1058 12.5556 22.1591 12.5333C22.1896 12.5206 22.2228 12.5067 22.2594 12.4897C22.1364 12.3485 22.0185 12.2138 21.904 12.0831C21.8225 11.99 21.7427 11.8989 21.6642 11.8089C21.5542 11.6829 21.4465 11.5591 21.3396 11.4351C20.5108 10.4741 19.6825 9.51297 18.8543 8.55188C17.75 7.27037 16.6458 5.98899 15.5405 4.70826C15.2304 4.34844 15.1082 3.9695 15.2963 3.55373C15.6376 2.79347 16.8597 2.66683 17.4414 3.33893C19.9588 6.25124 22.4701 9.16635 24.9782 12.0835C25.4475 12.6294 25.3408 13.2567 24.7343 13.6416C23.453 14.4571 22.1718 15.2729 20.8906 16.0887C18.9678 17.3131 17.0448 18.5375 15.1209 19.7613C14.4044 20.2163 13.5595 20.0449 13.1527 19.3654C12.8988 18.9424 12.9801 18.4493 13.3616 18.131C13.4507 18.0579 13.5499 17.9937 13.6491 17.9295L13.6491 17.9295C16.2646 16.2638 18.8813 14.5982 21.4981 12.9327ZM12.4091 19.8082C11.9374 19.0223 12.0956 18.0601 12.8051 17.4684L12.8105 17.4639L12.8105 17.4639C12.938 17.3594 13.0727 17.2722 13.1643 17.2129C13.1684 17.2102 13.1725 17.2076 13.1765 17.205L13.182 17.2015L13.182 17.2015C15.7612 15.5589 18.3417 13.9164 20.9221 12.274C20.8413 12.1812 20.7615 12.0893 20.6827 11.9978M12.4091 19.8082C13.0947 20.9525 14.5066 21.176 15.587 20.49L15.5876 20.4896C17.5111 19.266 19.434 18.0416 21.3565 16.8174C22.638 16.0015 23.9193 15.1856 25.2007 14.3701C25.6632 14.0764 26.0242 13.629 26.1154 13.0601C26.2073 12.4869 26.0006 11.9459 25.636 11.5219L25.636 11.5218C23.1275 8.60428 20.6157 5.68857 18.0977 2.77553L18.0973 2.77511C17.5883 2.18701 16.838 1.9842 16.1901 2.04989C15.547 2.11511 14.8347 2.46764 14.5057 3.19921C14.3366 3.57361 14.2967 3.96671 14.3886 4.35131C14.4764 4.71882 14.6713 5.02458 14.8834 5.27072L14.8838 5.27113C15.989 6.5518 17.0926 7.83246 18.1965 9.11353C19.0247 10.0746 19.8531 11.0359 20.6825 11.9976" fill="white"/>
<path d="M10.3279 10.7323C10.0024 10.3558 9.71314 10.0258 9.42968 9.69429C7.54372 7.48992 5.66066 5.28476 3.77453 3.08158C3.47209 2.72786 3.35321 2.35512 3.53728 1.9458C3.87145 1.19732 5.06495 1.07133 5.63222 1.73201C8.08716 4.59488 10.5361 7.46051 12.982 10.3281C13.4397 10.8647 13.3348 11.4821 12.7421 11.8616C9.61073 13.8721 6.4805 15.884 3.34772 17.8943C2.64759 18.3427 1.82273 18.1751 1.42621 17.5069C1.17882 17.0909 1.25868 16.6056 1.63165 16.2921C1.71874 16.22 1.81567 16.1567 1.9126 16.0934C4.63875 14.342 7.36626 12.5908 10.0938 10.8396C10.1552 10.8002 10.2281 10.777 10.3267 10.7309L10.3279 10.7323Z" fill="#FAF7FF"/>
<path fill-rule="evenodd" clip-rule="evenodd" d="M9.62627 11.1832C9.79706 11.0745 9.96785 10.9658 10.1386 10.8571L10.1492 10.8504C10.1892 10.8249 10.234 10.8061 10.2873 10.7838C10.3177 10.771 10.3509 10.7571 10.3876 10.7401C10.2646 10.599 10.1466 10.4643 10.0322 10.3335C9.95065 10.2404 9.8709 10.1493 9.79236 10.0594C9.68233 9.93339 9.57465 9.80961 9.46777 9.6856C8.63896 8.72459 7.81069 7.76343 6.98249 6.80234C5.87817 5.52083 4.77396 4.23945 3.66872 2.95872C3.35859 2.59889 3.23641 2.21995 3.42444 1.80419C3.76576 1.04393 4.98784 0.917292 5.56954 1.58938C8.08694 4.5017 10.5982 7.41681 13.1064 10.3339C13.5756 10.8798 13.469 11.5071 12.8625 11.892C11.5812 12.7076 10.3 13.5233 9.01879 14.3391C7.09594 15.5635 5.17297 16.7879 3.24907 18.0118C2.53261 18.4667 1.6877 18.2954 1.28085 17.6158C1.02702 17.1928 1.10823 16.6997 1.48981 16.3815C1.5789 16.3084 1.67808 16.2442 1.77726 16.18L1.77728 16.1799C4.39277 14.5142 7.00948 12.8487 9.62627 11.1832ZM0.537242 18.0586C0.0656159 17.2727 0.223789 16.3106 0.933271 15.7189L0.938648 15.7144L0.938666 15.7144C1.06612 15.6098 1.20085 15.5227 1.29246 15.4634C1.29662 15.4607 1.30069 15.4581 1.30467 15.4555L1.31014 15.4519L1.31015 15.452C3.88942 13.8093 6.46986 12.1669 9.0503 10.5245C8.96945 10.4317 8.88971 10.3398 8.81083 10.2483M0.537242 18.0586C1.22291 19.203 2.6348 19.4264 3.7152 18.7404L3.71582 18.74C5.63931 17.5164 7.56214 16.2921 9.48468 15.0679C10.7662 14.2519 12.0475 13.436 13.3288 12.6205C13.7914 12.3268 14.1523 11.8794 14.2436 11.3105C14.3355 10.7374 14.1288 10.1964 13.7642 9.77231L13.7642 9.77226C11.2557 6.85473 8.74387 3.93903 6.22585 1.02599L6.22549 1.02557C5.71648 0.437468 4.96617 0.234654 4.31828 0.300351C3.67519 0.365563 2.96283 0.718096 2.63384 1.44967C2.46478 1.82407 2.42485 2.21717 2.51676 2.60177C2.60459 2.96927 2.79946 3.27504 3.0116 3.52118L3.01196 3.52158C4.11715 4.80226 5.22074 6.08292 6.32468 7.36399C7.15287 8.32506 7.98125 9.28636 8.81065 10.2481" fill="white"/>
<path fill-rule="evenodd" clip-rule="evenodd" d="M9.62627 11.1832C9.79706 11.0745 9.96785 10.9658 10.1386 10.8571L10.1492 10.8504C10.1892 10.8249 10.234 10.8061 10.2873 10.7838C10.3177 10.771 10.3509 10.7571 10.3876 10.7401C10.2646 10.599 10.1466 10.4643 10.0322 10.3335C9.95065 10.2404 9.8709 10.1493 9.79236 10.0594C9.68233 9.93339 9.57465 9.80961 9.46777 9.6856C8.63896 8.72459 7.81069 7.76343 6.98249 6.80234C5.87817 5.52083 4.77396 4.23945 3.66872 2.95872C3.35859 2.59889 3.23641 2.21995 3.42444 1.80419C3.76576 1.04393 4.98784 0.917292 5.56954 1.58938C8.08694 4.5017 10.5982 7.41681 13.1064 10.3339C13.5756 10.8798 13.469 11.5071 12.8625 11.892C11.5812 12.7076 10.3 13.5233 9.01879 14.3391C7.09594 15.5635 5.17297 16.7879 3.24907 18.0118C2.53261 18.4667 1.6877 18.2954 1.28085 17.6158C1.02702 17.1928 1.10823 16.6997 1.48981 16.3815C1.5789 16.3084 1.67808 16.2442 1.77726 16.18L1.77728 16.1799C4.39277 14.5142 7.00948 12.8487 9.62627 11.1832ZM0.537242 18.0586C0.0656159 17.2727 0.223789 16.3106 0.933271 15.7189L0.938648 15.7144L0.938666 15.7144C1.06612 15.6098 1.20085 15.5227 1.29246 15.4634C1.29662 15.4607 1.30069 15.4581 1.30467 15.4555L1.31014 15.4519L1.31015 15.452C3.88942 13.8093 6.46986 12.1669 9.0503 10.5245C8.96945 10.4317 8.88971 10.3398 8.81083 10.2483M0.537242 18.0586C1.22291 19.203 2.6348 19.4264 3.7152 18.7404L3.71582 18.74C5.63931 17.5164 7.56214 16.2921 9.48468 15.0679C10.7662 14.2519 12.0475 13.436 13.3288 12.6205C13.7914 12.3268 14.1523 11.8794 14.2436 11.3105C14.3355 10.7374 14.1288 10.1964 13.7642 9.77231L13.7642 9.77226C11.2557 6.85473 8.74387 3.93903 6.22585 1.02599L6.22549 1.02557C5.71648 0.437468 4.96617 0.234654 4.31828 0.300351C3.67519 0.365563 2.96283 0.718096 2.63384 1.44967C2.46478 1.82407 2.42485 2.21717 2.51676 2.60177C2.60459 2.96927 2.79946 3.27504 3.0116 3.52118L3.01196 3.52158C4.11715 4.80226 5.22074 6.08292 6.32468 7.36399C7.15287 8.32506 7.98125 9.28636 8.81065 10.2481" fill="white"/>
</svg>
