<svg width="78" height="48" viewBox="0 0 78 48" fill="none" xmlns="http://www.w3.org/2000/svg">
<mask id="mask0_227_5155" style="mask-type:alpha" maskUnits="userSpaceOnUse" x="0" y="0" width="78" height="48">
<rect width="78" height="48" fill="#D9D9D9"/>
</mask>
<g mask="url(#mask0_227_5155)">
<g filter="url(#filter0_d_227_5155)">
<rect x="2.59998" width="72.8" height="40" rx="20" fill="url(#paint0_linear_227_5155)"/>
<mask id="mask1_227_5155" style="mask-type:alpha" maskUnits="userSpaceOnUse" x="2" y="0" width="74" height="40">
<rect x="2.59998" width="72.8" height="40" rx="20" fill="#57DB84"/>
</mask>
<g mask="url(#mask1_227_5155)">
<g filter="url(#filter1_f_227_5155)">
<path fill-rule="evenodd" clip-rule="evenodd" d="M55.4205 40C66.1677 40 74.88 31.2877 74.88 20.5405C74.88 20.0763 74.8637 19.6158 74.8318 19.1597C74.8637 18.7232 74.88 18.2824 74.88 17.8378C74.88 7.98627 66.8937 -1.34266e-06 57.0422 -2.99891e-06L20.9578 -9.06543e-06C11.1063 -1.07217e-05 3.12 7.98626 3.12 17.8378C3.12 18.2824 3.13627 18.7232 3.16824 19.1597C3.13626 19.6158 3.12 20.0763 3.12 20.5405C3.12 31.2877 11.8323 40 22.5795 40L55.4205 40ZM3.16824 19.1597C3.84465 28.394 11.5509 35.6757 20.9578 35.6757L57.0422 35.6757C66.4491 35.6757 74.1554 28.394 74.8318 19.1597C74.1235 9.05691 65.7034 1.08107 55.4205 1.08107L22.5795 1.08106C12.2966 1.08106 3.87651 9.0569 3.16824 19.1597Z" fill="#77F03E"/>
</g>
<g filter="url(#filter2_f_227_5155)">
<ellipse cx="39" cy="-4.5" rx="29.64" ry="15.5" fill="#77F03E"/>
</g>
<g filter="url(#filter3_f_227_5155)">
<ellipse cx="41.5" cy="48.5" rx="28.5" ry="14.5" fill="#77F03E"/>
</g>
</g>
</g>
<path d="M18.76 3.07811C16.36 2.67811 14.0933 3.91144 13.26 4.57811C11.4919 5.57811 10.76 8.07811 16.76 6.07811C22.76 4.07811 19.26 3.07811 18.76 3.07811Z" fill="white"/>
<ellipse cx="23.5" cy="3" rx="1.5" ry="1" fill="white"/>
<path d="M59.24 3.07811C61.64 2.67811 63.9067 3.91144 64.74 4.57811C66.5081 5.57811 67.24 8.07811 61.24 6.07811C55.24 4.07811 58.74 3.07811 59.24 3.07811Z" fill="white"/>
<ellipse cx="1.5" cy="1" rx="1.5" ry="1" transform="matrix(-1 0 0 1 56 2)" fill="white"/>
<g filter="url(#filter4_d_227_5155)">
<mask id="path-11-outside-1_227_5155" maskUnits="userSpaceOnUse" x="22" y="12" width="36" height="15" fill="black">
<rect fill="white" x="22" y="12" width="36" height="15"/>
<path d="M23.0114 25V13.3636H27.6705C28.5265 13.3636 29.2405 13.4905 29.8125 13.7443C30.3845 13.9981 30.8144 14.3504 31.1023 14.8011C31.3902 15.2481 31.5341 15.7633 31.5341 16.3466C31.5341 16.8011 31.4432 17.2008 31.2614 17.5455C31.0795 17.8864 30.8295 18.1667 30.5114 18.3864C30.197 18.6023 29.8371 18.7557 29.4318 18.8466V18.9602C29.875 18.9792 30.2898 19.1042 30.6761 19.3352C31.0663 19.5663 31.3826 19.8902 31.625 20.3068C31.8674 20.7197 31.9886 21.2121 31.9886 21.7841C31.9886 22.4015 31.8352 22.9527 31.5284 23.4375C31.2254 23.9186 30.7765 24.2992 30.1818 24.5795C29.5871 24.8598 28.8542 25 27.983 25H23.0114ZM25.4716 22.9886H27.4773C28.1629 22.9886 28.6629 22.858 28.9773 22.5966C29.2917 22.3314 29.4489 21.9792 29.4489 21.5398C29.4489 21.2178 29.3712 20.9337 29.2159 20.6875C29.0606 20.4413 28.839 20.2481 28.5511 20.108C28.267 19.9678 27.928 19.8977 27.5341 19.8977H25.4716V22.9886ZM25.4716 18.233H27.2955C27.6326 18.233 27.9318 18.1742 28.1932 18.0568C28.4583 17.9356 28.6667 17.7652 28.8182 17.5455C28.9735 17.3258 29.0511 17.0625 29.0511 16.7557C29.0511 16.3352 28.9015 15.9962 28.6023 15.7386C28.3068 15.4811 27.8864 15.3523 27.3409 15.3523H25.4716V18.233ZM40.777 13.3636H43.2372V20.9205C43.2372 21.7689 43.0346 22.5114 42.6293 23.1477C42.2277 23.7841 41.6652 24.2803 40.9418 24.6364C40.2183 24.9886 39.3755 25.1648 38.4134 25.1648C37.4474 25.1648 36.6027 24.9886 35.8793 24.6364C35.1558 24.2803 34.5933 23.7841 34.1918 23.1477C33.7902 22.5114 33.5895 21.7689 33.5895 20.9205V13.3636H36.0497V20.7102C36.0497 21.1534 36.1463 21.5473 36.3395 21.892C36.5365 22.2367 36.813 22.5076 37.169 22.7045C37.5251 22.9015 37.9399 23 38.4134 23C38.8906 23 39.3054 22.9015 39.6577 22.7045C40.0137 22.5076 40.2884 22.2367 40.4815 21.892C40.6785 21.5473 40.777 21.1534 40.777 20.7102V13.3636ZM44.5795 13.3636H47.3352L49.9886 18.375H50.1023L52.7557 13.3636H55.5114L51.267 20.8864V25H48.8239V20.8864L44.5795 13.3636Z"/>
</mask>
<path d="M23.0114 25V13.3636H27.6705C28.5265 13.3636 29.2405 13.4905 29.8125 13.7443C30.3845 13.9981 30.8144 14.3504 31.1023 14.8011C31.3902 15.2481 31.5341 15.7633 31.5341 16.3466C31.5341 16.8011 31.4432 17.2008 31.2614 17.5455C31.0795 17.8864 30.8295 18.1667 30.5114 18.3864C30.197 18.6023 29.8371 18.7557 29.4318 18.8466V18.9602C29.875 18.9792 30.2898 19.1042 30.6761 19.3352C31.0663 19.5663 31.3826 19.8902 31.625 20.3068C31.8674 20.7197 31.9886 21.2121 31.9886 21.7841C31.9886 22.4015 31.8352 22.9527 31.5284 23.4375C31.2254 23.9186 30.7765 24.2992 30.1818 24.5795C29.5871 24.8598 28.8542 25 27.983 25H23.0114ZM25.4716 22.9886H27.4773C28.1629 22.9886 28.6629 22.858 28.9773 22.5966C29.2917 22.3314 29.4489 21.9792 29.4489 21.5398C29.4489 21.2178 29.3712 20.9337 29.2159 20.6875C29.0606 20.4413 28.839 20.2481 28.5511 20.108C28.267 19.9678 27.928 19.8977 27.5341 19.8977H25.4716V22.9886ZM25.4716 18.233H27.2955C27.6326 18.233 27.9318 18.1742 28.1932 18.0568C28.4583 17.9356 28.6667 17.7652 28.8182 17.5455C28.9735 17.3258 29.0511 17.0625 29.0511 16.7557C29.0511 16.3352 28.9015 15.9962 28.6023 15.7386C28.3068 15.4811 27.8864 15.3523 27.3409 15.3523H25.4716V18.233ZM40.777 13.3636H43.2372V20.9205C43.2372 21.7689 43.0346 22.5114 42.6293 23.1477C42.2277 23.7841 41.6652 24.2803 40.9418 24.6364C40.2183 24.9886 39.3755 25.1648 38.4134 25.1648C37.4474 25.1648 36.6027 24.9886 35.8793 24.6364C35.1558 24.2803 34.5933 23.7841 34.1918 23.1477C33.7902 22.5114 33.5895 21.7689 33.5895 20.9205V13.3636H36.0497V20.7102C36.0497 21.1534 36.1463 21.5473 36.3395 21.892C36.5365 22.2367 36.813 22.5076 37.169 22.7045C37.5251 22.9015 37.9399 23 38.4134 23C38.8906 23 39.3054 22.9015 39.6577 22.7045C40.0137 22.5076 40.2884 22.2367 40.4815 21.892C40.6785 21.5473 40.777 21.1534 40.777 20.7102V13.3636ZM44.5795 13.3636H47.3352L49.9886 18.375H50.1023L52.7557 13.3636H55.5114L51.267 20.8864V25H48.8239V20.8864L44.5795 13.3636Z" fill="url(#paint1_linear_227_5155)"/>
<path d="M23.0114 25H22.0114V26H23.0114V25ZM23.0114 13.3636V12.3636H22.0114V13.3636H23.0114ZM29.8125 13.7443L29.4069 14.6584L29.8125 13.7443ZM31.1023 14.8011L30.2595 15.3394L30.2616 15.3426L31.1023 14.8011ZM31.2614 17.5455L32.1437 18.016L32.1459 18.012L31.2614 17.5455ZM30.5114 18.3864L31.0775 19.2107L31.0796 19.2093L30.5114 18.3864ZM29.4318 18.8466L29.213 17.8708L28.4318 18.046V18.8466H29.4318ZM29.4318 18.9602H28.4318V19.9184L29.3891 19.9593L29.4318 18.9602ZM30.6761 19.3352L30.1629 20.1935L30.1666 20.1957L30.6761 19.3352ZM31.625 20.3068L30.7606 20.8097L30.7627 20.8131L31.625 20.3068ZM31.5284 23.4375L30.6834 22.9028L30.6823 22.9045L31.5284 23.4375ZM30.1818 24.5795L29.7555 23.675H29.7555L30.1818 24.5795ZM25.4716 22.9886H24.4716V23.9886H25.4716V22.9886ZM28.9773 22.5966L29.6166 23.3656L29.622 23.361L28.9773 22.5966ZM29.2159 20.6875L28.3701 21.221V21.221L29.2159 20.6875ZM28.5511 20.108L28.1087 21.0048L28.1134 21.0071L28.5511 20.108ZM25.4716 19.8977V18.8977H24.4716V19.8977H25.4716ZM25.4716 18.233H24.4716V19.233H25.4716V18.233ZM28.1932 18.0568L28.603 18.969L28.6089 18.9663L28.1932 18.0568ZM28.8182 17.5455L28.0015 16.9682L27.995 16.9777L28.8182 17.5455ZM28.6023 15.7386L27.9451 16.4924L27.9499 16.4965L28.6023 15.7386ZM25.4716 15.3523V14.3523H24.4716V15.3523H25.4716ZM24.0114 25V13.3636H22.0114V25H24.0114ZM23.0114 14.3636H27.6705V12.3636H23.0114V14.3636ZM27.6705 14.3636C28.4352 14.3636 29.0005 14.478 29.4069 14.6584L30.2181 12.8303C29.4806 12.503 28.6179 12.3636 27.6705 12.3636V14.3636ZM29.4069 14.6584C29.8306 14.8464 30.0943 15.0807 30.2595 15.3394L31.9451 14.2629C31.5345 13.6201 30.9383 13.1498 30.2181 12.8303L29.4069 14.6584ZM30.2616 15.3426C30.4354 15.6126 30.5341 15.9359 30.5341 16.3466H32.5341C32.5341 15.5906 32.3449 14.8836 31.943 14.2597L30.2616 15.3426ZM30.5341 16.3466C30.5341 16.6657 30.4711 16.9002 30.3769 17.0789L32.1459 18.012C32.4152 17.5013 32.5341 16.9366 32.5341 16.3466H30.5341ZM30.379 17.0749C30.2724 17.2748 30.1301 17.4344 29.9432 17.5635L31.0796 19.2093C31.529 18.899 31.8867 18.4979 32.1437 18.016L30.379 17.0749ZM29.9453 17.562C29.7449 17.6996 29.5051 17.8053 29.213 17.8708L29.6507 19.8223C30.1692 19.706 30.649 19.5049 31.0775 19.2107L29.9453 17.562ZM28.4318 18.8466V18.9602H30.4318V18.8466H28.4318ZM29.3891 19.9593C29.6636 19.971 29.917 20.0464 30.1629 20.1935L31.1894 18.477C30.6625 18.1619 30.0864 17.9873 29.4745 17.9611L29.3891 19.9593ZM30.1666 20.1957C30.4006 20.3343 30.5984 20.5309 30.7607 20.8097L32.4893 19.8039C32.1667 19.2494 31.732 18.7983 31.1857 18.4748L30.1666 20.1957ZM30.7627 20.8131C30.8988 21.0451 30.9886 21.3554 30.9886 21.7841H32.9886C32.9886 21.0689 32.836 20.3943 32.4873 19.8005L30.7627 20.8131ZM30.9886 21.7841C30.9886 22.2272 30.8812 22.5901 30.6834 22.9028L32.3734 23.9722C32.7892 23.3152 32.9886 22.5758 32.9886 21.7841H30.9886ZM30.6823 22.9045C30.496 23.2002 30.2052 23.463 29.7555 23.675L30.6082 25.4841C31.3478 25.1355 31.9548 24.6369 32.3745 23.9705L30.6823 22.9045ZM29.7555 23.675C29.3301 23.8755 28.7525 24 27.983 24V26C28.9558 26 29.8442 25.8442 30.6082 25.4841L29.7555 23.675ZM27.983 24H23.0114V26H27.983V24ZM25.4716 23.9886H27.4773V21.9886H25.4716V23.9886ZM27.4773 23.9886C28.2511 23.9886 29.0359 23.8483 29.6165 23.3656L28.338 21.8276C28.2899 21.8676 28.0746 21.9886 27.4773 21.9886V23.9886ZM29.622 23.361C30.1786 22.8915 30.4489 22.2509 30.4489 21.5398H28.4489C28.4489 21.7074 28.4047 21.7713 28.3326 21.8322L29.622 23.361ZM30.4489 21.5398C30.4489 21.0497 30.3283 20.5766 30.0617 20.154L28.3701 21.221C28.4142 21.2909 28.4489 21.3859 28.4489 21.5398H30.4489ZM30.0617 20.154C29.7973 19.7348 29.4269 19.4221 28.9889 19.2088L28.1134 21.0071C28.2512 21.0741 28.3239 21.1478 28.3701 21.221L30.0617 20.154ZM28.9936 19.2111C28.5425 18.9886 28.0449 18.8977 27.5341 18.8977V20.8977C27.8111 20.8977 27.9916 20.947 28.1087 21.0048L28.9936 19.2111ZM27.5341 18.8977H25.4716V20.8977H27.5341V18.8977ZM24.4716 19.8977V22.9886H26.4716V19.8977H24.4716ZM25.4716 19.233H27.2955V17.233H25.4716V19.233ZM27.2955 19.233C27.7492 19.233 28.192 19.1536 28.603 18.969L27.7834 17.1446C27.6716 17.1949 27.516 17.233 27.2955 17.233V19.233ZM28.6089 18.9663C29.0226 18.7772 29.378 18.4951 29.6414 18.1132L27.995 16.9777C27.9553 17.0353 27.8941 17.094 27.7774 17.1473L28.6089 18.9663ZM29.6348 18.1227C29.9257 17.7111 30.0511 17.2391 30.0511 16.7557H28.0511C28.0511 16.8859 28.0213 16.9404 28.0016 16.9682L29.6348 18.1227ZM30.0511 16.7557C30.0511 16.0655 29.7904 15.4419 29.2546 14.9807L27.9499 16.4965C28.0127 16.5506 28.0511 16.6049 28.0511 16.7557H30.0511ZM29.2594 14.9849C28.7215 14.5159 28.0336 14.3523 27.3409 14.3523V16.3523C27.7391 16.3523 27.8921 16.4462 27.9451 16.4924L29.2594 14.9849ZM27.3409 14.3523H25.4716V16.3523H27.3409V14.3523ZM24.4716 15.3523V18.233H26.4716V15.3523H24.4716ZM40.777 13.3636V12.3636H39.777V13.3636H40.777ZM43.2372 13.3636H44.2372V12.3636H43.2372V13.3636ZM42.6293 23.1477L41.7858 22.6105L41.7835 22.6141L42.6293 23.1477ZM40.9418 24.6364L41.3795 25.5355L41.3833 25.5336L40.9418 24.6364ZM35.8793 24.6364L35.4377 25.5336L35.4415 25.5354L35.8793 24.6364ZM34.1918 23.1477L33.346 23.6813L34.1918 23.1477ZM33.5895 13.3636V12.3636H32.5895V13.3636H33.5895ZM36.0497 13.3636H37.0497V12.3636H36.0497V13.3636ZM36.3395 21.892L35.4671 22.381L35.4712 22.3882L36.3395 21.892ZM37.169 22.7045L36.685 23.5796H36.685L37.169 22.7045ZM39.6577 22.7045L39.1736 21.8295L39.1696 21.8317L39.6577 22.7045ZM40.4815 21.892L39.6133 21.3959L39.6092 21.4031L40.4815 21.892ZM40.777 14.3636H43.2372V12.3636H40.777V14.3636ZM42.2372 13.3636V20.9205H44.2372V13.3636H42.2372ZM42.2372 20.9205C42.2372 21.6031 42.0765 22.1541 41.7858 22.6105L43.4727 23.6849C43.9926 22.8686 44.2372 21.9348 44.2372 20.9205H42.2372ZM41.7835 22.6141C41.4877 23.083 41.0703 23.4586 40.5002 23.7391L41.3833 25.5336C42.2602 25.1021 42.9678 24.4852 43.475 23.6813L41.7835 22.6141ZM40.504 23.7373C39.941 24.0114 39.2531 24.1648 38.4134 24.1648V26.1648C39.4978 26.1648 40.4955 25.9659 41.3795 25.5354L40.504 23.7373ZM38.4134 24.1648C37.5691 24.1648 36.8795 24.0111 36.317 23.7373L35.4415 25.5354C36.326 25.9661 37.3258 26.1648 38.4134 26.1648V24.1648ZM36.3208 23.7391C35.7507 23.4586 35.3334 23.083 35.0375 22.6141L33.346 23.6813C33.8532 24.4852 34.5608 25.1021 35.4377 25.5336L36.3208 23.7391ZM35.0375 22.6141C34.7492 22.1572 34.5895 21.6049 34.5895 20.9205H32.5895C32.5895 21.933 32.8313 22.8655 33.346 23.6813L35.0375 22.6141ZM34.5895 20.9205V13.3636H32.5895V20.9205H34.5895ZM33.5895 14.3636H36.0497V12.3636H33.5895V14.3636ZM35.0497 13.3636V20.7102H37.0497V13.3636H35.0497ZM35.0497 20.7102C35.0497 21.3034 35.1805 21.8694 35.4671 22.3809L37.2118 21.4031C37.1121 21.2253 37.0497 21.0034 37.0497 20.7102H35.0497ZM35.4712 22.3882C35.7615 22.8961 36.1728 23.2962 36.685 23.5796L37.6531 21.8295C37.4532 21.7189 37.3114 21.5774 37.2077 21.3959L35.4712 22.3882ZM36.685 23.5796C37.2118 23.871 37.7984 24 38.4134 24V22C38.0813 22 37.8384 21.932 37.6531 21.8295L36.685 23.5796ZM38.4134 24C39.0302 24 39.6192 23.8718 40.1457 23.5774L39.1696 21.8317C38.9916 21.9313 38.751 22 38.4134 22V24ZM40.1417 23.5796C40.6555 23.2954 41.0669 22.893 41.3539 22.3809L39.6092 21.4031C39.5098 21.5805 39.3719 21.7198 39.1736 21.8295L40.1417 23.5796ZM41.3498 22.3882C41.6428 21.8754 41.777 21.3067 41.777 20.7102H39.777C39.777 21.0001 39.7142 21.2193 39.6133 21.3959L41.3498 22.3882ZM41.777 20.7102V13.3636H39.777V20.7102H41.777ZM44.5795 13.3636V12.3636H42.8672L43.7086 13.855L44.5795 13.3636ZM47.3352 13.3636L48.219 12.8957L47.9373 12.3636H47.3352V13.3636ZM49.9886 18.375L49.1049 18.8429L49.3866 19.375H49.9886V18.375ZM50.1023 18.375V19.375H50.7043L50.986 18.8429L50.1023 18.375ZM52.7557 13.3636V12.3636H52.1536L51.8719 12.8957L52.7557 13.3636ZM55.5114 13.3636L56.3823 13.855L57.2237 12.3636H55.5114V13.3636ZM51.267 20.8864L50.3961 20.395L50.267 20.6237V20.8864H51.267ZM51.267 25V26H52.267V25H51.267ZM48.8239 25H47.8239V26H48.8239V25ZM48.8239 20.8864H49.8239V20.6237L49.6948 20.395L48.8239 20.8864ZM44.5795 14.3636H47.3352V12.3636H44.5795V14.3636ZM46.4515 13.8316L49.1049 18.8429L50.8724 17.9071L48.219 12.8957L46.4515 13.8316ZM49.9886 19.375H50.1023V17.375H49.9886V19.375ZM50.986 18.8429L53.6394 13.8316L51.8719 12.8957L49.2185 17.9071L50.986 18.8429ZM52.7557 14.3636H55.5114V12.3636H52.7557V14.3636ZM54.6404 12.8723L50.3961 20.395L52.138 21.3777L56.3823 13.855L54.6404 12.8723ZM50.267 20.8864V25H52.267V20.8864H50.267ZM51.267 24H48.8239V26H51.267V24ZM49.8239 25V20.8864H47.8239V25H49.8239ZM49.6948 20.395L45.4505 12.8723L43.7086 13.855L47.9529 21.3777L49.6948 20.395Z" fill="#10741C" mask="url(#path-11-outside-1_227_5155)"/>
</g>
</g>
<defs>
<filter id="filter0_d_227_5155" x="-1.40002" y="0" width="80.8" height="48" filterUnits="userSpaceOnUse" color-interpolation-filters="sRGB">
<feFlood flood-opacity="0" result="BackgroundImageFix"/>
<feColorMatrix in="SourceAlpha" type="matrix" values="0 0 0 0 0 0 0 0 0 0 0 0 0 0 0 0 0 0 127 0" result="hardAlpha"/>
<feOffset dy="4"/>
<feGaussianBlur stdDeviation="2"/>
<feComposite in2="hardAlpha" operator="out"/>
<feColorMatrix type="matrix" values="0 0 0 0 0 0 0 0 0 0 0 0 0 0 0 0 0 0 0.25 0"/>
<feBlend mode="normal" in2="BackgroundImageFix" result="effect1_dropShadow_227_5155"/>
<feBlend mode="normal" in="SourceGraphic" in2="effect1_dropShadow_227_5155" result="shape"/>
</filter>
<filter id="filter1_f_227_5155" x="1.12" y="-2" width="75.76" height="44" filterUnits="userSpaceOnUse" color-interpolation-filters="sRGB">
<feFlood flood-opacity="0" result="BackgroundImageFix"/>
<feBlend mode="normal" in="SourceGraphic" in2="BackgroundImageFix" result="shape"/>
<feGaussianBlur stdDeviation="1" result="effect1_foregroundBlur_227_5155"/>
</filter>
<filter id="filter2_f_227_5155" x="-10.64" y="-40" width="99.28" height="71" filterUnits="userSpaceOnUse" color-interpolation-filters="sRGB">
<feFlood flood-opacity="0" result="BackgroundImageFix"/>
<feBlend mode="normal" in="SourceGraphic" in2="BackgroundImageFix" result="shape"/>
<feGaussianBlur stdDeviation="10" result="effect1_foregroundBlur_227_5155"/>
</filter>
<filter id="filter3_f_227_5155" x="5" y="26" width="73" height="45" filterUnits="userSpaceOnUse" color-interpolation-filters="sRGB">
<feFlood flood-opacity="0" result="BackgroundImageFix"/>
<feBlend mode="normal" in="SourceGraphic" in2="BackgroundImageFix" result="shape"/>
<feGaussianBlur stdDeviation="4" result="effect1_foregroundBlur_227_5155"/>
</filter>
<filter id="filter4_d_227_5155" x="23.0114" y="13.3636" width="32.5" height="13.8011" filterUnits="userSpaceOnUse" color-interpolation-filters="sRGB">
<feFlood flood-opacity="0" result="BackgroundImageFix"/>
<feColorMatrix in="SourceAlpha" type="matrix" values="0 0 0 0 0 0 0 0 0 0 0 0 0 0 0 0 0 0 127 0" result="hardAlpha"/>
<feOffset dy="2"/>
<feComposite in2="hardAlpha" operator="out"/>
<feColorMatrix type="matrix" values="0 0 0 0 0.0510703 0 0 0 0 0.405029 0 0 0 0 0.0935454 0 0 0 1 0"/>
<feBlend mode="normal" in2="BackgroundImageFix" result="effect1_dropShadow_227_5155"/>
<feBlend mode="normal" in="SourceGraphic" in2="effect1_dropShadow_227_5155" result="shape"/>
</filter>
<linearGradient id="paint0_linear_227_5155" x1="44.3268" y1="5.99788e-07" x2="44.3268" y2="43.3333" gradientUnits="userSpaceOnUse">
<stop stop-color="#36D528"/>
<stop offset="0.855" stop-color="#0D7023"/>
<stop offset="0.975" stop-color="#238E2E"/>
</linearGradient>
<linearGradient id="paint1_linear_227_5155" x1="39" y1="10" x2="39" y2="29" gradientUnits="userSpaceOnUse">
<stop offset="0.45" stop-color="white"/>
<stop offset="1" stop-color="#97D82D"/>
</linearGradient>
</defs>
</svg>
