<svg width="26" height="38" viewBox="0 0 26 38" fill="none" xmlns="http://www.w3.org/2000/svg">
<path d="M9.304 24.664C8.296 17.128 18.52 15.448 18.52 10.792C18.52 7.864 16.216 6.232 12.424 6.232C9.496 6.232 7.096 7.576 4.744 10.024L0.808 6.424C3.88 2.872 8.104 0.519998 13.24 0.519998C20.2 0.519998 25.288 3.784 25.288 10.168C25.288 17.176 14.776 18.04 15.544 24.664H9.304ZM12.472 37.48C9.976 37.48 8.2 35.704 8.2 33.208C8.2 30.712 10.024 28.984 12.472 28.984C14.872 28.984 16.696 30.712 16.696 33.208C16.696 35.704 14.872 37.48 12.472 37.48Z" fill="white"/>
</svg>
