<svg width="22" height="22" viewBox="0 0 22 22" fill="none" xmlns="http://www.w3.org/2000/svg">
<mask id="mask0_321_1749" style="mask-type:alpha" maskUnits="userSpaceOnUse" x="0" y="0" width="22" height="22">
<rect width="22" height="22" fill="#D9D9D9"/>
</mask>
<g mask="url(#mask0_321_1749)">
<path d="M3.94531 5.625L6.08594 9.59375L8.22656 5.625H10.9062L7.60156 11.2656L10.9922 17H8.28906L6.08594 12.9531L3.88281 17H1.16406L4.5625 11.2656L1.25 5.625H3.94531ZM16.6016 12.9453H13.7031V11.1172H16.6016C17.0495 11.1172 17.4141 11.0443 17.6953 10.8984C17.9766 10.7474 18.1823 10.5391 18.3125 10.2734C18.4427 10.0078 18.5078 9.70833 18.5078 9.375C18.5078 9.03646 18.4427 8.72135 18.3125 8.42969C18.1823 8.13802 17.9766 7.90365 17.6953 7.72656C17.4141 7.54948 17.0495 7.46094 16.6016 7.46094H14.5156V17H12.1719V5.625H16.6016C17.4922 5.625 18.2552 5.78646 18.8906 6.10938C19.5312 6.42708 20.0208 6.86719 20.3594 7.42969C20.6979 7.99219 20.8672 8.63542 20.8672 9.35938C20.8672 10.0938 20.6979 10.7292 20.3594 11.2656C20.0208 11.8021 19.5312 12.2161 18.8906 12.5078C18.2552 12.7995 17.4922 12.9453 16.6016 12.9453Z" fill="#FFD466"/>
</g>
</svg>
