<svg width="16" height="16" viewBox="0 0 16 16" fill="none" xmlns="http://www.w3.org/2000/svg">
<mask id="mask0_721_1271" style="mask-type:alpha" maskUnits="userSpaceOnUse" x="0" y="0" width="16" height="16">
<rect width="16" height="16" fill="#D9D9D9"/>
</mask>
<g mask="url(#mask0_721_1271)">
<path d="M7.92637 15C7.16435 14.3304 6.41885 13.6786 5.6757 13.0219C4.54487 12.024 3.38886 11.0519 2.42081 9.87686C1.64385 8.93472 1.08551 7.89149 1.00923 6.62506C0.868462 4.29599 2.35318 2.30901 4.44027 2.03971C5.79995 1.86422 6.90012 2.35834 7.75336 3.4509C7.81942 3.53581 7.88312 3.62315 7.95783 3.72343C8.01759 3.6555 8.06556 3.60698 8.10724 3.5536C9.05957 2.33165 10.2824 1.77445 11.7907 2.08419C13.2943 2.39311 14.2742 3.37083 14.7547 4.84834C15.3059 6.54338 14.8946 8.06374 13.8574 9.44258C13.0293 10.5432 12.0062 11.4401 10.9831 12.3361C9.97572 13.2184 8.96441 14.0959 7.92716 15H7.92637Z" fill="#C3BAE7"/>
</g>
</svg>
