<svg width="14" height="14" viewBox="0 0 14 14" fill="none" xmlns="http://www.w3.org/2000/svg">
<path fill-rule="evenodd" clip-rule="evenodd" d="M1.09308 0.875V3.43987C1.09308 3.72795 1.28154 3.98282 1.55705 4.06718C1.83256 4.15244 2.13051 4.04744 2.29205 3.80872C3.31603 2.30282 5.04359 1.31205 7 1.31205C10.1392 1.31205 12.6879 3.86077 12.6879 7C12.6879 10.1392 10.1392 12.6879 7 12.6879C3.86077 12.6879 1.31205 10.1392 1.31205 7C1.31205 6.63744 1.01859 6.34397 0.656026 6.34397C0.293462 6.34397 0 6.63833 0 7C0 10.8635 3.13654 14 7 14C10.8635 14 14 10.8635 14 7C14 3.13654 10.8626 0 6.9991 0C5.24282 0 3.63462 0.648846 2.40513 1.71949V0.875C2.40513 0.512436 2.11167 0.218974 1.7491 0.218974C1.38654 0.218974 1.09308 0.513333 1.09308 0.875ZM6.9991 2.3109C9.57474 2.3109 11.6658 4.40192 11.6658 6.97756C11.6658 9.55321 9.57474 11.6442 6.9991 11.6442C4.42346 11.6442 2.33244 9.55321 2.33244 6.97756C2.33244 4.40192 4.42346 2.3109 6.9991 2.3109ZM6.34308 4.59397V6.72808L5.46808 7.60308C5.21231 7.85885 5.21231 8.27526 5.46808 8.53102C5.72385 8.78679 6.13936 8.78679 6.39513 8.53102L7.46308 7.46397C7.58603 7.34103 7.65603 7.1741 7.65603 7V4.59397C7.65603 4.23141 7.36256 3.93795 7 3.93795C6.63744 3.93795 6.34397 4.23231 6.34397 4.59397H6.34308Z" fill="#C3BAE7"/>
</svg>
