<svg width="30" height="30" viewBox="0 0 30 30" fill="none" xmlns="http://www.w3.org/2000/svg">
<g filter="url(#filter0_d_368_3400)">
<circle cx="15" cy="13" r="12" fill="url(#paint0_linear_368_3400)"/>
<mask id="mask0_368_3400" style="mask-type:alpha" maskUnits="userSpaceOnUse" x="3" y="1" width="24" height="24">
<circle cx="15.0003" cy="12.9993" r="11.3684" fill="url(#paint1_linear_368_3400)"/>
<circle cx="15.0003" cy="12.9993" r="10.8684" stroke="#1E0A2B" stroke-opacity="0.2"/>
</mask>
<g mask="url(#mask0_368_3400)">
<g style="mix-blend-mode:hard-light">
<ellipse cx="15.0001" cy="7.31461" rx="6.94737" ry="4.42105" fill="#F4C8FF"/>
<path d="M21.4475 7.31461C21.4475 8.3052 20.8156 9.27351 19.6442 10.0189C18.4787 10.7606 16.8382 11.2357 15.0001 11.2357C13.162 11.2357 11.5215 10.7606 10.356 10.0189C9.18463 9.27351 8.55273 8.3052 8.55273 7.31461C8.55273 6.32401 9.18463 5.35571 10.356 4.61028C11.5215 3.86863 13.162 3.39355 15.0001 3.39355C16.8382 3.39355 18.4787 3.86863 19.6442 4.61028C20.8156 5.35571 21.4475 6.32401 21.4475 7.31461Z" stroke="#1E0A2B" stroke-opacity="0.2"/>
</g>
</g>
<mask id="path-6-outside-1_368_3400" maskUnits="userSpaceOnUse" x="10" y="6" width="11" height="15" fill="black">
<rect fill="white" x="10" y="6" width="11" height="15"/>
<path d="M14.001 15.0811V13.9121C14.001 13.5749 14.0579 13.3128 14.1719 13.126C14.2904 12.9346 14.6003 12.6999 15.1016 12.4219C15.7396 12.0664 16.1839 11.7542 16.4346 11.4854C16.7809 11.1162 16.9541 10.6309 16.9541 10.0293C16.9541 9.42773 16.7581 9.00163 16.3662 8.75098C16.1064 8.58236 15.8102 8.49805 15.4775 8.49805C14.9307 8.49805 14.5273 8.70312 14.2676 9.11328C14.1445 9.30924 13.9827 9.75814 13.7822 10.46C13.6956 10.779 13.5726 11.0023 13.4131 11.1299C13.2171 11.2803 12.9619 11.3555 12.6475 11.3555C12.2601 11.3555 11.9365 11.2438 11.6768 11.0205C11.499 10.8656 11.4102 10.6719 11.4102 10.4395C11.4102 10.0156 11.5811 9.52116 11.9229 8.95605C12.3968 8.16309 12.9984 7.65495 13.7275 7.43164C14.2835 7.25846 14.8965 7.17188 15.5664 7.17188C16.8379 7.17188 17.8451 7.50684 18.5879 8.17676C19.1667 8.69629 19.4561 9.36393 19.4561 10.1797C19.4561 10.9043 19.2396 11.5036 18.8066 11.9775C18.515 12.3011 17.9932 12.6657 17.2412 13.0713C16.8037 13.3037 16.5462 13.4541 16.4688 13.5225C16.373 13.5999 16.3252 13.6979 16.3252 13.8164V15.0811C16.3252 15.2588 16.2409 15.4229 16.0723 15.5732C15.8444 15.7738 15.5482 15.874 15.1836 15.874C14.7005 15.874 14.3473 15.7236 14.124 15.4229C14.042 15.3135 14.001 15.1995 14.001 15.0811ZM15.1016 16.6396C15.5117 16.6396 15.849 16.7741 16.1133 17.043C16.373 17.3027 16.5029 17.624 16.5029 18.0068C16.5029 18.4352 16.3594 18.7816 16.0723 19.0459C15.8171 19.2783 15.5026 19.3945 15.1289 19.3945C14.7552 19.3945 14.4316 19.2578 14.1582 18.9844C13.8848 18.7155 13.748 18.3874 13.748 18C13.748 17.599 13.8757 17.2731 14.1309 17.0225C14.3952 16.7673 14.7188 16.6396 15.1016 16.6396Z"/>
</mask>
<path d="M14.001 15.0811V13.9121C14.001 13.5749 14.0579 13.3128 14.1719 13.126C14.2904 12.9346 14.6003 12.6999 15.1016 12.4219C15.7396 12.0664 16.1839 11.7542 16.4346 11.4854C16.7809 11.1162 16.9541 10.6309 16.9541 10.0293C16.9541 9.42773 16.7581 9.00163 16.3662 8.75098C16.1064 8.58236 15.8102 8.49805 15.4775 8.49805C14.9307 8.49805 14.5273 8.70312 14.2676 9.11328C14.1445 9.30924 13.9827 9.75814 13.7822 10.46C13.6956 10.779 13.5726 11.0023 13.4131 11.1299C13.2171 11.2803 12.9619 11.3555 12.6475 11.3555C12.2601 11.3555 11.9365 11.2438 11.6768 11.0205C11.499 10.8656 11.4102 10.6719 11.4102 10.4395C11.4102 10.0156 11.5811 9.52116 11.9229 8.95605C12.3968 8.16309 12.9984 7.65495 13.7275 7.43164C14.2835 7.25846 14.8965 7.17188 15.5664 7.17188C16.8379 7.17188 17.8451 7.50684 18.5879 8.17676C19.1667 8.69629 19.4561 9.36393 19.4561 10.1797C19.4561 10.9043 19.2396 11.5036 18.8066 11.9775C18.515 12.3011 17.9932 12.6657 17.2412 13.0713C16.8037 13.3037 16.5462 13.4541 16.4688 13.5225C16.373 13.5999 16.3252 13.6979 16.3252 13.8164V15.0811C16.3252 15.2588 16.2409 15.4229 16.0723 15.5732C15.8444 15.7738 15.5482 15.874 15.1836 15.874C14.7005 15.874 14.3473 15.7236 14.124 15.4229C14.042 15.3135 14.001 15.1995 14.001 15.0811ZM15.1016 16.6396C15.5117 16.6396 15.849 16.7741 16.1133 17.043C16.373 17.3027 16.5029 17.624 16.5029 18.0068C16.5029 18.4352 16.3594 18.7816 16.0723 19.0459C15.8171 19.2783 15.5026 19.3945 15.1289 19.3945C14.7552 19.3945 14.4316 19.2578 14.1582 18.9844C13.8848 18.7155 13.748 18.3874 13.748 18C13.748 17.599 13.8757 17.2731 14.1309 17.0225C14.3952 16.7673 14.7188 16.6396 15.1016 16.6396Z" fill="white"/>
<path d="M14.1719 13.126L13.3216 12.5996L13.3181 12.6054L14.1719 13.126ZM15.1016 12.4219L15.5865 13.2964L15.5883 13.2954L15.1016 12.4219ZM16.4346 11.4854L15.7053 10.8011L15.7031 10.8035L16.4346 11.4854ZM16.3662 8.75098L15.8217 9.58978L15.8274 9.59343L16.3662 8.75098ZM14.2676 9.11328L13.4228 8.57823L13.4207 8.58151L14.2676 9.11328ZM13.7822 10.46L12.8206 10.1852L12.8171 10.198L13.7822 10.46ZM13.4131 11.1299L14.0219 11.9232L14.0299 11.9171L14.0378 11.9108L13.4131 11.1299ZM11.6768 11.0205L11.0196 11.7743L11.0249 11.7788L11.6768 11.0205ZM11.9229 8.95605L12.7785 9.4736L12.7812 9.4691L11.9229 8.95605ZM13.7275 7.43164L14.0204 8.38782L14.0249 8.3864L13.7275 7.43164ZM18.5879 8.17676L17.9182 8.91937L17.9199 8.92093L18.5879 8.17676ZM18.8066 11.9775L18.0683 11.3031L18.0639 11.308L18.8066 11.9775ZM17.2412 13.0713L17.7104 13.9544L17.7159 13.9514L17.2412 13.0713ZM16.4688 13.5225L17.0979 14.2997L17.1145 14.2863L17.1304 14.2723L16.4688 13.5225ZM16.0723 15.5732L16.7329 16.324L16.7379 16.3195L16.0723 15.5732ZM14.124 15.4229L14.9269 14.8267L14.924 14.8229L14.124 15.4229ZM16.1133 17.043L15.4001 17.744L15.4062 17.7501L16.1133 17.043ZM16.0723 19.0459L16.7456 19.7853L16.7496 19.7816L16.0723 19.0459ZM14.1582 18.9844L14.8653 18.2772L14.8593 18.2714L14.1582 18.9844ZM14.1309 17.0225L13.4362 16.303L13.4302 16.309L14.1309 17.0225ZM15.001 15.0811V13.9121H13.001V15.0811H15.001ZM15.001 13.9121C15.001 13.7975 15.0109 13.7212 15.0209 13.6751C15.0308 13.6293 15.0381 13.6262 15.0257 13.6466L13.3181 12.6054C13.0701 13.0121 13.001 13.4827 13.001 13.9121H15.001ZM15.0221 13.6523C14.9859 13.7109 14.9794 13.6926 15.0969 13.6036C15.201 13.5247 15.3598 13.4221 15.5865 13.2964L14.6166 11.5473C14.342 11.6996 14.0952 11.8534 13.8894 12.0092C13.6971 12.1549 13.4763 12.3497 13.3216 12.5996L15.0221 13.6523ZM15.5883 13.2954C16.246 12.929 16.8044 12.5552 17.166 12.1672L15.7031 10.8035C15.5634 10.9533 15.2331 11.2038 14.6149 11.5483L15.5883 13.2954ZM17.1638 12.1696C17.7161 11.581 17.9541 10.8341 17.9541 10.0293H15.9541C15.9541 10.4276 15.8458 10.6514 15.7053 10.8011L17.1638 12.1696ZM17.9541 10.0293C17.9541 9.19951 17.668 8.39647 16.905 7.90853L15.8274 9.59343C15.8483 9.60678 15.9541 9.65596 15.9541 10.0293H17.9541ZM16.9107 7.9122C16.4767 7.63048 15.9885 7.49805 15.4775 7.49805V9.49805C15.632 9.49805 15.7362 9.53424 15.8217 9.58976L16.9107 7.9122ZM15.4775 7.49805C14.6392 7.49805 13.8917 7.83778 13.4228 8.57823L15.1124 9.64833C15.163 9.56847 15.2221 9.49805 15.4775 9.49805V7.49805ZM13.4207 8.58151C13.299 8.77526 13.1984 9.02132 13.1132 9.25787C13.0218 9.51148 12.9243 9.82269 12.8207 10.1852L14.7438 10.7347C14.8407 10.3954 14.9243 10.1313 14.9947 9.93598C15.0298 9.83861 15.0592 9.76503 15.0828 9.71172C15.1078 9.65498 15.119 9.6379 15.1145 9.64505L13.4207 8.58151ZM12.8171 10.198C12.7889 10.302 12.7629 10.3592 12.7492 10.3841C12.7358 10.4084 12.7437 10.3848 12.7884 10.349L14.0378 11.9108C14.4372 11.5913 14.6367 11.1293 14.7473 10.7219L12.8171 10.198ZM12.8043 10.3366C12.8112 10.3313 12.8108 10.3343 12.7921 10.3398C12.7711 10.346 12.7259 10.3555 12.6475 10.3555V12.3555C13.1213 12.3555 13.6085 12.2404 14.0219 11.9232L12.8043 10.3366ZM12.6475 10.3555C12.4659 10.3555 12.3832 10.3091 12.3286 10.2622L11.0249 11.7788C11.4898 12.1785 12.0542 12.3555 12.6475 12.3555V10.3555ZM12.3339 10.2667C12.3404 10.2724 12.365 10.2969 12.3857 10.342C12.4066 10.3875 12.4102 10.4249 12.4102 10.4395H10.4102C10.4102 10.9657 10.6277 11.4326 11.0196 11.7743L12.3339 10.2667ZM12.4102 10.4395C12.4102 10.273 12.4829 9.96237 12.7785 9.47359L11.0672 8.43852C10.6792 9.07994 10.4102 9.75825 10.4102 10.4395H12.4102ZM12.7812 9.4691C13.1563 8.84154 13.5759 8.52391 14.0204 8.38781L13.4347 6.47547C12.4208 6.78598 11.6373 7.48463 11.0645 8.44301L12.7812 9.4691ZM14.0249 8.3864C14.4714 8.24733 14.9825 8.17188 15.5664 8.17188V6.17188C14.8105 6.17188 14.0956 6.2696 13.4302 6.47688L14.0249 8.3864ZM15.5664 8.17188C16.6599 8.17188 17.4048 8.45636 17.9182 8.91937L19.2576 7.43414C18.2853 6.55731 17.0159 6.17188 15.5664 6.17188V8.17188ZM17.9199 8.92093C18.276 9.24053 18.4561 9.63215 18.4561 10.1797H20.4561C20.4561 9.09571 20.0574 8.15205 19.2559 7.43259L17.9199 8.92093ZM18.4561 10.1797C18.4561 10.6893 18.311 11.0375 18.0683 11.3031L19.545 12.652C20.1682 11.9697 20.4561 11.1193 20.4561 10.1797H18.4561ZM18.0639 11.308C17.8914 11.4993 17.4953 11.798 16.7665 12.1912L17.7159 13.9514C18.4911 13.5333 19.1386 13.1029 19.5494 12.6471L18.0639 11.308ZM16.7721 12.1882C16.5481 12.3072 16.361 12.41 16.2156 12.4949C16.0988 12.5631 15.9304 12.6638 15.8071 12.7726L17.1304 14.2723C17.0942 14.3042 17.0759 14.3136 17.1074 14.2931C17.1304 14.2781 17.1681 14.2547 17.2243 14.2219C17.3364 14.1564 17.4968 14.0678 17.7104 13.9544L16.7721 12.1882ZM15.8396 12.7452C15.5199 13.004 15.3252 13.3828 15.3252 13.8164H17.3252C17.3252 13.8958 17.3081 13.9937 17.2597 14.0929C17.2117 14.191 17.1488 14.2585 17.0979 14.2997L15.8396 12.7452ZM15.3252 13.8164V15.0811H17.3252V13.8164H15.3252ZM15.3252 15.0811C15.3252 15.0048 15.3449 14.9342 15.3725 14.8803C15.3976 14.8315 15.4192 14.8158 15.4067 14.8269L16.7379 16.3195C17.0575 16.0345 17.3252 15.6173 17.3252 15.0811H15.3252ZM15.4116 14.8225C15.4015 14.8314 15.3563 14.874 15.1836 14.874V16.874C15.74 16.874 16.2873 16.7161 16.7329 16.324L15.4116 14.8225ZM15.1836 14.874C15.0431 14.874 14.9733 14.8519 14.9482 14.8412C14.9307 14.8337 14.93 14.8309 14.9269 14.8268L13.3211 16.019C13.786 16.6451 14.4848 16.874 15.1836 16.874V14.874ZM14.924 14.8229C14.9351 14.8377 14.9554 14.8688 14.9726 14.9167C14.9904 14.9659 15.001 15.0223 15.001 15.0811H13.001C13.001 15.4482 13.133 15.7681 13.324 16.0229L14.924 14.8229ZM15.1016 17.6396C15.2696 17.6396 15.3413 17.6842 15.4002 17.744L16.8264 16.3419C16.3566 15.864 15.7539 15.6396 15.1016 15.6396V17.6396ZM15.4062 17.7501C15.4698 17.8137 15.5029 17.8768 15.5029 18.0068H17.5029C17.5029 17.3712 17.2763 16.7918 16.8204 16.3359L15.4062 17.7501ZM15.5029 18.0068C15.5029 18.1861 15.455 18.2549 15.395 18.3102L16.7496 19.7816C17.2637 19.3083 17.5029 18.6843 17.5029 18.0068H15.5029ZM15.3989 18.3066C15.3438 18.3568 15.2759 18.3945 15.1289 18.3945V20.3945C15.7293 20.3945 16.2903 20.1999 16.7456 19.7852L15.3989 18.3066ZM15.1289 18.3945C15.0306 18.3945 14.9585 18.3705 14.8653 18.2773L13.4511 19.6915C13.9048 20.1452 14.4799 20.3945 15.1289 20.3945V18.3945ZM14.8593 18.2714C14.7793 18.1926 14.748 18.1223 14.748 18H12.748C12.748 18.6524 12.9903 19.2384 13.4571 19.6974L14.8593 18.2714ZM14.748 18C14.748 17.8317 14.7918 17.775 14.8316 17.7359L13.4302 16.309C12.9595 16.7713 12.748 17.3662 12.748 18H14.748ZM14.8255 17.7419C14.8949 17.6748 14.9659 17.6396 15.1016 17.6396V15.6396C14.4716 15.6396 13.8955 15.8597 13.4363 16.3031L14.8255 17.7419Z" fill="#5C197C" mask="url(#path-6-outside-1_368_3400)"/>
</g>
<defs>
<filter id="filter0_d_368_3400" x="0" y="0" width="30" height="30" filterUnits="userSpaceOnUse" color-interpolation-filters="sRGB">
<feFlood flood-opacity="0" result="BackgroundImageFix"/>
<feColorMatrix in="SourceAlpha" type="matrix" values="0 0 0 0 0 0 0 0 0 0 0 0 0 0 0 0 0 0 127 0" result="hardAlpha"/>
<feOffset dy="2"/>
<feGaussianBlur stdDeviation="1.5"/>
<feComposite in2="hardAlpha" operator="out"/>
<feColorMatrix type="matrix" values="0 0 0 0 0 0 0 0 0 0 0 0 0 0 0 0 0 0 0.25 0"/>
<feBlend mode="normal" in2="BackgroundImageFix" result="effect1_dropShadow_368_3400"/>
<feBlend mode="normal" in="SourceGraphic" in2="effect1_dropShadow_368_3400" result="shape"/>
</filter>
<linearGradient id="paint0_linear_368_3400" x1="15" y1="1" x2="15" y2="25" gradientUnits="userSpaceOnUse">
<stop stop-color="#EF8EFF"/>
<stop offset="0.59" stop-color="#CB37F9"/>
<stop offset="0.885" stop-color="#B325F5"/>
<stop offset="1" stop-color="#D15EFF"/>
</linearGradient>
<linearGradient id="paint1_linear_368_3400" x1="15.0003" y1="1.63086" x2="15.0003" y2="24.3677" gradientUnits="userSpaceOnUse">
<stop stop-color="#E16EC1"/>
<stop offset="0.2" stop-color="#DB8DFF"/>
<stop offset="0.6" stop-color="#620CA6"/>
<stop offset="0.885" stop-color="#5B1474"/>
<stop offset="1" stop-color="#B930BC"/>
</linearGradient>
</defs>
</svg>
