<svg width="16" height="16" viewBox="0 0 16 16" fill="none" xmlns="http://www.w3.org/2000/svg">
<mask id="mask0_33_1906" style="mask-type:alpha" maskUnits="userSpaceOnUse" x="0" y="0" width="16" height="16">
<rect width="16" height="16" fill="#D9D9D9"/>
</mask>
<g mask="url(#mask0_33_1906)">
<path d="M1.33331 8.18183C1.33331 8.05974 1.33331 7.93895 1.33331 7.81687C1.41125 7.42723 1.66324 7.15449 1.93471 6.88564C3.58563 5.24267 5.23395 3.59451 6.87707 1.94376C7.14984 1.66971 7.42261 1.41255 7.81748 1.33333H8.18248C8.57215 1.41126 8.84362 1.66322 9.1125 1.93467C10.7621 3.59192 12.4156 5.24527 14.073 6.89473C14.3484 7.16877 14.5978 7.44671 14.6666 7.84414V8.15715C14.6589 8.17663 14.6485 8.19611 14.6446 8.21689C14.5238 8.82083 14.0458 9.21955 13.4327 9.22735C13.3703 9.22735 13.3067 9.22735 13.2365 9.22735C13.2365 9.30008 13.2365 9.35073 13.2365 9.40268C13.2365 10.6911 13.2404 11.9782 13.2339 13.2666C13.2313 13.877 12.8157 14.4186 12.2325 14.5991C12.1507 14.6251 12.0675 14.6446 11.9844 14.6667H9.5879C9.35669 14.5809 9.27486 14.4121 9.27746 14.1705C9.28395 13.1783 9.28136 12.1847 9.28006 11.1924C9.28006 10.7495 9.01118 10.482 8.56566 10.4807C8.19676 10.4807 7.82917 10.4807 7.46028 10.4807C6.97838 10.4807 6.7186 10.7391 6.7186 11.2171C6.7186 12.2016 6.71471 13.1847 6.7212 14.1692C6.7225 14.4095 6.64197 14.5796 6.41206 14.6667H4.01557C4.00518 14.6602 3.99348 14.6498 3.98179 14.6485C3.35962 14.5718 2.74653 13.9939 2.75822 13.1497C2.77511 11.8964 2.76212 10.6417 2.76212 9.3884C2.76212 9.33774 2.76212 9.28839 2.76212 9.22605C2.67119 9.22605 2.59845 9.22865 2.52571 9.22605C2.04901 9.20137 1.69311 8.97798 1.4697 8.55847C1.40735 8.44288 1.37748 8.30911 1.33331 8.18442L1.33331 8.18183Z" fill="#E1D7FF"/>
</g>
</svg>
